<mxfile host="65bd71144e" modified="2020-11-26T04:05:40.233Z" agent="5.0 (Macintosh; Intel Mac OS X 10_16_0) AppleWebKit/537.36 (KHTML, like Gecko) Code/1.51.1 Chrome/83.0.4103.122 Electron/9.3.3 Safari/537.36" etag="EjQe_o2ilemQtE_Gk2RO" version="13.6.5">
    <diagram id="C5RBs43oDa-KdzZeNtuy" name="Page-1">
        <mxGraphModel dx="322" dy="703" grid="1" gridSize="10" guides="1" tooltips="1" connect="1" arrows="1" fold="1" page="1" pageScale="1" pageWidth="1169" pageHeight="1654" math="0" shadow="0">
            <root>
                <mxCell id="WIyWlLk6GJQsqaUBKTNV-0"/>
                <mxCell id="WIyWlLk6GJQsqaUBKTNV-1" parent="WIyWlLk6GJQsqaUBKTNV-0"/>
                <mxCell id="RiHCerz2gjzvpgdkcuPO-0" value="main" style="swimlane;fontStyle=3;align=center;verticalAlign=top;childLayout=stackLayout;horizontal=1;startSize=26;horizontalStack=0;resizeParent=1;resizeLast=0;collapsible=1;marginBottom=0;rounded=0;shadow=0;strokeWidth=1;" parent="WIyWlLk6GJQsqaUBKTNV-1" vertex="1">
                    <mxGeometry x="40" y="40" width="160" height="120" as="geometry">
                        <mxRectangle x="220" y="120" width="160" height="26" as="alternateBounds"/>
                    </mxGeometry>
                </mxCell>
                <mxCell id="olZNuqd292mdIsfCVhg7-23" value="distance: float &lt;&lt;global&gt;&gt;" style="text;align=left;verticalAlign=middle;spacingLeft=4;spacingRight=4;overflow=hidden;rotatable=0;points=[[0,0.5],[1,0.5]];portConstraint=eastwest;imageHeight=18;" parent="RiHCerz2gjzvpgdkcuPO-0" vertex="1">
                    <mxGeometry y="26" width="160" height="20" as="geometry"/>
                </mxCell>
                <mxCell id="olZNuqd292mdIsfCVhg7-22" value="boost_count: int &lt;&lt;global&gt;&gt;" style="text;align=left;verticalAlign=middle;spacingLeft=4;spacingRight=4;overflow=hidden;rotatable=0;points=[[0,0.5],[1,0.5]];portConstraint=eastwest;imageHeight=18;" parent="RiHCerz2gjzvpgdkcuPO-0" vertex="1">
                    <mxGeometry y="46" width="160" height="20" as="geometry"/>
                </mxCell>
                <mxCell id="olZNuqd292mdIsfCVhg7-21" value="life_count: int &lt;&lt;global&gt;&gt;" style="text;align=left;verticalAlign=middle;spacingLeft=4;spacingRight=4;overflow=hidden;rotatable=0;points=[[0,0.5],[1,0.5]];portConstraint=eastwest;imageHeight=18;" parent="RiHCerz2gjzvpgdkcuPO-0" vertex="1">
                    <mxGeometry y="66" width="160" height="20" as="geometry"/>
                </mxCell>
                <mxCell id="RiHCerz2gjzvpgdkcuPO-4" value="" style="line;html=1;strokeWidth=1;align=left;verticalAlign=middle;spacingTop=-1;spacingLeft=3;spacingRight=3;rotatable=0;labelPosition=right;points=[];portConstraint=eastwest;" parent="RiHCerz2gjzvpgdkcuPO-0" vertex="1">
                    <mxGeometry y="86" width="160" height="8" as="geometry"/>
                </mxCell>
                <mxCell id="olZNuqd292mdIsfCVhg7-19" value="game: GameManager" style="text;align=left;verticalAlign=middle;spacingLeft=4;spacingRight=4;overflow=hidden;rotatable=0;points=[[0,0.5],[1,0.5]];portConstraint=eastwest;imageHeight=18;" parent="RiHCerz2gjzvpgdkcuPO-0" vertex="1">
                    <mxGeometry y="94" width="160" height="20" as="geometry"/>
                </mxCell>
                <mxCell id="RiHCerz2gjzvpgdkcuPO-10" value="GameManager" style="swimlane;fontStyle=3;align=center;verticalAlign=top;childLayout=stackLayout;horizontal=1;startSize=26;horizontalStack=0;resizeParent=1;resizeLast=0;collapsible=1;marginBottom=0;rounded=0;shadow=0;strokeWidth=1;" parent="WIyWlLk6GJQsqaUBKTNV-1" vertex="1">
                    <mxGeometry x="300" y="40" width="220" height="302" as="geometry">
                        <mxRectangle x="220" y="120" width="160" height="26" as="alternateBounds"/>
                    </mxGeometry>
                </mxCell>
                <mxCell id="4" value="-m_ObjectManager: ObjectManager" style="text;align=left;verticalAlign=middle;spacingLeft=4;spacingRight=4;overflow=hidden;rotatable=0;points=[[0,0.5],[1,0.5]];portConstraint=eastwest;imageHeight=18;" parent="RiHCerz2gjzvpgdkcuPO-10" vertex="1">
                    <mxGeometry y="26" width="220" height="20" as="geometry"/>
                </mxCell>
                <mxCell id="RiHCerz2gjzvpgdkcuPO-17" value="-m_ObjectGenerator: ObjectGenerator" style="text;align=left;verticalAlign=middle;spacingLeft=4;spacingRight=4;overflow=hidden;rotatable=0;points=[[0,0.5],[1,0.5]];portConstraint=eastwest;imageHeight=18;" parent="RiHCerz2gjzvpgdkcuPO-10" vertex="1">
                    <mxGeometry y="46" width="220" height="20" as="geometry"/>
                </mxCell>
                <mxCell id="RiHCerz2gjzvpgdkcuPO-12" value="-m_InputManager: InputManager" style="text;align=left;verticalAlign=middle;spacingLeft=4;spacingRight=4;overflow=hidden;rotatable=0;points=[[0,0.5],[1,0.5]];portConstraint=eastwest;rounded=0;shadow=0;html=0;resizeHeight=0;" parent="RiHCerz2gjzvpgdkcuPO-10" vertex="1">
                    <mxGeometry y="66" width="220" height="20" as="geometry"/>
                </mxCell>
                <mxCell id="31" value="-m_SceneManager: SceneManager" style="text;align=left;verticalAlign=middle;spacingLeft=4;spacingRight=4;overflow=hidden;rotatable=0;points=[[0,0.5],[1,0.5]];portConstraint=eastwest;rounded=0;shadow=0;html=0;resizeHeight=0;" vertex="1" parent="RiHCerz2gjzvpgdkcuPO-10">
                    <mxGeometry y="86" width="220" height="20" as="geometry"/>
                </mxCell>
                <mxCell id="6" value="-high_score: int" style="text;align=left;verticalAlign=middle;spacingLeft=4;spacingRight=4;overflow=hidden;rotatable=0;points=[[0,0.5],[1,0.5]];portConstraint=eastwest;imageHeight=18;" parent="RiHCerz2gjzvpgdkcuPO-10" vertex="1">
                    <mxGeometry y="106" width="220" height="20" as="geometry"/>
                </mxCell>
                <mxCell id="RiHCerz2gjzvpgdkcuPO-11" value="-is_paused: bool" style="text;align=left;verticalAlign=middle;spacingLeft=4;spacingRight=4;overflow=hidden;rotatable=0;points=[[0,0.5],[1,0.5]];portConstraint=eastwest;imageHeight=18;" parent="RiHCerz2gjzvpgdkcuPO-10" vertex="1">
                    <mxGeometry y="126" width="220" height="20" as="geometry"/>
                </mxCell>
                <mxCell id="RiHCerz2gjzvpgdkcuPO-14" value="" style="line;html=1;strokeWidth=1;align=left;verticalAlign=middle;spacingTop=-1;spacingLeft=3;spacingRight=3;rotatable=0;labelPosition=right;points=[];portConstraint=eastwest;" parent="RiHCerz2gjzvpgdkcuPO-10" vertex="1">
                    <mxGeometry y="146" width="220" height="8" as="geometry"/>
                </mxCell>
                <mxCell id="RiHCerz2gjzvpgdkcuPO-18" value="+GameManager(): GameManager" style="text;align=left;verticalAlign=middle;spacingLeft=4;spacingRight=4;overflow=hidden;rotatable=0;points=[[0,0.5],[1,0.5]];portConstraint=eastwest;rounded=0;shadow=0;html=0;resizeHeight=0;" parent="RiHCerz2gjzvpgdkcuPO-10" vertex="1">
                    <mxGeometry y="154" width="220" height="20" as="geometry"/>
                </mxCell>
                <mxCell id="RiHCerz2gjzvpgdkcuPO-48" value="" style="line;html=1;strokeWidth=1;align=left;verticalAlign=middle;spacingTop=-1;spacingLeft=3;spacingRight=3;rotatable=0;labelPosition=right;points=[];portConstraint=eastwest;" parent="RiHCerz2gjzvpgdkcuPO-10" vertex="1">
                    <mxGeometry y="174" width="220" height="8" as="geometry"/>
                </mxCell>
                <mxCell id="RiHCerz2gjzvpgdkcuPO-19" value="-Ready(): void" style="text;align=left;verticalAlign=middle;spacingLeft=4;spacingRight=4;overflow=hidden;rotatable=0;points=[[0,0.5],[1,0.5]];portConstraint=eastwest;rounded=0;shadow=0;html=0;resizeHeight=0;" parent="RiHCerz2gjzvpgdkcuPO-10" vertex="1">
                    <mxGeometry y="182" width="220" height="20" as="geometry"/>
                </mxCell>
                <mxCell id="RiHCerz2gjzvpgdkcuPO-20" value="-Start(): void" style="text;align=left;verticalAlign=middle;spacingLeft=4;spacingRight=4;overflow=hidden;rotatable=0;points=[[0,0.5],[1,0.5]];portConstraint=eastwest;rounded=0;shadow=0;html=0;resizeHeight=0;" parent="RiHCerz2gjzvpgdkcuPO-10" vertex="1">
                    <mxGeometry y="202" width="220" height="20" as="geometry"/>
                </mxCell>
                <mxCell id="RiHCerz2gjzvpgdkcuPO-21" value="-Render(): void" style="text;align=left;verticalAlign=middle;spacingLeft=4;spacingRight=4;overflow=hidden;rotatable=0;points=[[0,0.5],[1,0.5]];portConstraint=eastwest;rounded=0;shadow=0;html=0;resizeHeight=0;" parent="RiHCerz2gjzvpgdkcuPO-10" vertex="1">
                    <mxGeometry y="222" width="220" height="20" as="geometry"/>
                </mxCell>
                <mxCell id="7" value="-DistanceToScore(distance: float): int" style="text;align=left;verticalAlign=middle;spacingLeft=4;spacingRight=4;overflow=hidden;rotatable=0;points=[[0,0.5],[1,0.5]];portConstraint=eastwest;rounded=0;shadow=0;html=0;resizeHeight=0;" parent="RiHCerz2gjzvpgdkcuPO-10" vertex="1">
                    <mxGeometry y="242" width="220" height="20" as="geometry"/>
                </mxCell>
                <mxCell id="0" value="-LoadHighScore(): void" style="text;align=left;verticalAlign=middle;spacingLeft=4;spacingRight=4;overflow=hidden;rotatable=0;points=[[0,0.5],[1,0.5]];portConstraint=eastwest;rounded=0;shadow=0;html=0;resizeHeight=0;" parent="RiHCerz2gjzvpgdkcuPO-10" vertex="1">
                    <mxGeometry y="262" width="220" height="20" as="geometry"/>
                </mxCell>
                <mxCell id="5" value="-SaveHighScore(): void" style="text;align=left;verticalAlign=middle;spacingLeft=4;spacingRight=4;overflow=hidden;rotatable=0;points=[[0,0.5],[1,0.5]];portConstraint=eastwest;rounded=0;shadow=0;html=0;resizeHeight=0;" parent="RiHCerz2gjzvpgdkcuPO-10" vertex="1">
                    <mxGeometry y="282" width="220" height="20" as="geometry"/>
                </mxCell>
                <mxCell id="RiHCerz2gjzvpgdkcuPO-22" value="instantiated by" style="edgeStyle=orthogonalEdgeStyle;rounded=0;orthogonalLoop=1;jettySize=auto;html=1;entryX=-0.005;entryY=0.08;entryDx=0;entryDy=0;entryPerimeter=0;endArrow=none;endFill=0;startArrow=diamondThin;startFill=1;startSize=12;" parent="WIyWlLk6GJQsqaUBKTNV-1" target="RiHCerz2gjzvpgdkcuPO-10" edge="1">
                    <mxGeometry x="-0.1822" y="-12" relative="1" as="geometry">
                        <mxPoint x="230" y="127" as="targetPoint"/>
                        <mxPoint as="offset"/>
                        <mxPoint x="200" y="78" as="sourcePoint"/>
                    </mxGeometry>
                </mxCell>
                <mxCell id="olZNuqd292mdIsfCVhg7-0" value="" style="edgeStyle=orthogonalEdgeStyle;rounded=0;orthogonalLoop=1;jettySize=auto;html=1;entryX=0.5;entryY=0;entryDx=0;entryDy=0;endArrow=none;endFill=0;startArrow=diamondThin;startFill=1;startSize=12;exitX=0.5;exitY=1;exitDx=0;exitDy=0;" parent="WIyWlLk6GJQsqaUBKTNV-1" source="RiHCerz2gjzvpgdkcuPO-10" target="RiHCerz2gjzvpgdkcuPO-23" edge="1">
                    <mxGeometry x="0.1228" y="-10" relative="1" as="geometry">
                        <mxPoint x="238.9000000000001" y="189.99999999999994" as="targetPoint"/>
                        <mxPoint as="offset"/>
                        <mxPoint x="370" y="252" as="sourcePoint"/>
                        <Array as="points">
                            <mxPoint x="410" y="370"/>
                            <mxPoint x="175" y="370"/>
                        </Array>
                    </mxGeometry>
                </mxCell>
                <mxCell id="olZNuqd292mdIsfCVhg7-1" value="instantiated by" style="edgeStyle=orthogonalEdgeStyle;rounded=0;orthogonalLoop=1;jettySize=auto;html=1;entryX=0.5;entryY=0;entryDx=0;entryDy=0;endArrow=none;endFill=0;startArrow=diamondThin;startFill=1;startSize=12;exitX=0.5;exitY=1;exitDx=0;exitDy=0;" parent="WIyWlLk6GJQsqaUBKTNV-1" source="RiHCerz2gjzvpgdkcuPO-10" target="RiHCerz2gjzvpgdkcuPO-51" edge="1">
                    <mxGeometry x="0.4124" y="21" relative="1" as="geometry">
                        <mxPoint x="150" y="740" as="targetPoint"/>
                        <mxPoint x="-15" y="-20" as="offset"/>
                        <mxPoint x="385" y="680" as="sourcePoint"/>
                        <Array as="points">
                            <mxPoint x="410" y="370"/>
                            <mxPoint x="454" y="370"/>
                        </Array>
                    </mxGeometry>
                </mxCell>
                <mxCell id="olZNuqd292mdIsfCVhg7-3" value="" style="edgeStyle=orthogonalEdgeStyle;rounded=0;orthogonalLoop=1;jettySize=auto;html=1;entryX=0.5;entryY=0;entryDx=0;entryDy=0;endArrow=none;endFill=0;startArrow=diamondThin;startFill=1;startSize=12;exitX=0.5;exitY=1;exitDx=0;exitDy=0;" parent="WIyWlLk6GJQsqaUBKTNV-1" source="RiHCerz2gjzvpgdkcuPO-10" target="RiHCerz2gjzvpgdkcuPO-70" edge="1">
                    <mxGeometry x="-0.1822" y="-12" relative="1" as="geometry">
                        <mxPoint x="688.9000000000001" y="220.00000000000006" as="targetPoint"/>
                        <mxPoint as="offset"/>
                        <mxPoint x="590" y="242.8" as="sourcePoint"/>
                        <Array as="points">
                            <mxPoint x="410" y="370"/>
                            <mxPoint x="691" y="370"/>
                            <mxPoint x="691" y="400"/>
                        </Array>
                    </mxGeometry>
                </mxCell>
                <mxCell id="olZNuqd292mdIsfCVhg7-24" value="&lt;p style=&quot;line-height: 80%&quot;&gt;&lt;/p&gt;&lt;h1&gt;Legend&lt;/h1&gt;&lt;p style=&quot;line-height: 40%&quot;&gt;&lt;b&gt;+&lt;/b&gt;: public&lt;/p&gt;&lt;p style=&quot;line-height: 40%&quot;&gt;&lt;b&gt;-&lt;/b&gt;: private&lt;/p&gt;&lt;p style=&quot;line-height: 40%&quot;&gt;&lt;i&gt;(none)&lt;/i&gt;: protected&lt;/p&gt;&lt;p style=&quot;line-height: 40%&quot;&gt;&lt;b&gt;&amp;lt;&amp;lt;global&amp;gt;&amp;gt;&lt;/b&gt;: global variable&lt;/p&gt;&lt;p&gt;&lt;/p&gt;" style="text;html=1;strokeColor=none;fillColor=none;spacing=5;spacingTop=-20;whiteSpace=wrap;overflow=hidden;rounded=0;fontFamily=Courier New;" parent="WIyWlLk6GJQsqaUBKTNV-1" vertex="1">
                    <mxGeometry x="40" y="200" width="218" height="120" as="geometry"/>
                </mxCell>
                <mxCell id="olZNuqd292mdIsfCVhg7-44" value="" style="endArrow=block;endSize=10;endFill=0;shadow=0;strokeWidth=1;rounded=0;edgeStyle=elbowEdgeStyle;elbow=vertical;entryX=0.5;entryY=1;entryDx=0;entryDy=0;exitX=0.5;exitY=0;exitDx=0;exitDy=0;" parent="WIyWlLk6GJQsqaUBKTNV-1" source="olZNuqd292mdIsfCVhg7-30" target="olZNuqd292mdIsfCVhg7-4" edge="1">
                    <mxGeometry width="160" relative="1" as="geometry">
                        <mxPoint x="1122" y="1902" as="sourcePoint"/>
                        <mxPoint x="1082" y="1820" as="targetPoint"/>
                    </mxGeometry>
                </mxCell>
                <mxCell id="olZNuqd292mdIsfCVhg7-46" value="" style="endArrow=block;endSize=10;endFill=0;shadow=0;strokeWidth=1;rounded=0;edgeStyle=orthogonalEdgeStyle;elbow=vertical;entryX=0.5;entryY=1;entryDx=0;entryDy=0;exitX=0.5;exitY=0;exitDx=0;exitDy=0;" parent="WIyWlLk6GJQsqaUBKTNV-1" source="olZNuqd292mdIsfCVhg7-38" target="olZNuqd292mdIsfCVhg7-4" edge="1">
                    <mxGeometry width="160" relative="1" as="geometry">
                        <mxPoint x="670" y="2402" as="sourcePoint"/>
                        <mxPoint x="700" y="2120" as="targetPoint"/>
                        <Array as="points">
                            <mxPoint x="660" y="1620"/>
                            <mxPoint x="550" y="1620"/>
                            <mxPoint x="550" y="1470"/>
                            <mxPoint x="660" y="1470"/>
                        </Array>
                    </mxGeometry>
                </mxCell>
                <mxCell id="olZNuqd292mdIsfCVhg7-64" value="" style="endArrow=block;endSize=10;endFill=0;shadow=0;strokeWidth=1;rounded=0;edgeStyle=orthogonalEdgeStyle;elbow=vertical;entryX=0.5;entryY=1;entryDx=0;entryDy=0;exitX=0.5;exitY=0;exitDx=0;exitDy=0;" parent="WIyWlLk6GJQsqaUBKTNV-1" source="olZNuqd292mdIsfCVhg7-57" target="olZNuqd292mdIsfCVhg7-25" edge="1">
                    <mxGeometry width="160" relative="1" as="geometry">
                        <mxPoint x="483" y="2180" as="sourcePoint"/>
                        <mxPoint x="195" y="2120" as="targetPoint"/>
                        <Array as="points">
                            <mxPoint x="434" y="1620"/>
                            <mxPoint x="320" y="1620"/>
                            <mxPoint x="320" y="1470"/>
                            <mxPoint x="434" y="1470"/>
                        </Array>
                    </mxGeometry>
                </mxCell>
                <mxCell id="olZNuqd292mdIsfCVhg7-65" value="" style="endArrow=block;endSize=10;endFill=0;shadow=0;strokeWidth=1;rounded=0;edgeStyle=elbowEdgeStyle;elbow=vertical;exitX=0.5;exitY=0;exitDx=0;exitDy=0;entryX=0.5;entryY=1;entryDx=0;entryDy=0;" parent="WIyWlLk6GJQsqaUBKTNV-1" source="olZNuqd292mdIsfCVhg7-50" target="olZNuqd292mdIsfCVhg7-25" edge="1">
                    <mxGeometry width="160" relative="1" as="geometry">
                        <mxPoint x="160" y="2194" as="sourcePoint"/>
                        <mxPoint x="140" y="2120" as="targetPoint"/>
                    </mxGeometry>
                </mxCell>
                <mxCell id="olZNuqd292mdIsfCVhg7-86" value="" style="endArrow=block;endSize=10;endFill=0;shadow=0;strokeWidth=1;rounded=0;edgeStyle=elbowEdgeStyle;elbow=vertical;exitX=0.5;exitY=0;exitDx=0;exitDy=0;entryX=0.5;entryY=1;entryDx=0;entryDy=0;" parent="WIyWlLk6GJQsqaUBKTNV-1" source="olZNuqd292mdIsfCVhg7-71" target="olZNuqd292mdIsfCVhg7-66" edge="1">
                    <mxGeometry width="160" relative="1" as="geometry">
                        <mxPoint x="152" y="1534" as="sourcePoint"/>
                        <mxPoint x="132" y="1460" as="targetPoint"/>
                    </mxGeometry>
                </mxCell>
                <mxCell id="olZNuqd292mdIsfCVhg7-103" value="" style="endArrow=block;endSize=10;endFill=0;shadow=0;strokeWidth=1;rounded=0;edgeStyle=orthogonalEdgeStyle;elbow=vertical;entryX=0.5;entryY=1;entryDx=0;entryDy=0;exitX=0.5;exitY=0;exitDx=0;exitDy=0;" parent="WIyWlLk6GJQsqaUBKTNV-1" source="olZNuqd292mdIsfCVhg7-78" target="olZNuqd292mdIsfCVhg7-66" edge="1">
                    <mxGeometry width="160" relative="1" as="geometry">
                        <mxPoint x="640" y="1660" as="sourcePoint"/>
                        <mxPoint x="390" y="1450" as="targetPoint"/>
                        <Array as="points">
                            <mxPoint x="175" y="1940"/>
                            <mxPoint x="30" y="1940"/>
                            <mxPoint x="30" y="1670"/>
                            <mxPoint x="175" y="1670"/>
                        </Array>
                    </mxGeometry>
                </mxCell>
                <mxCell id="olZNuqd292mdIsfCVhg7-121" value="" style="endArrow=block;endSize=10;endFill=0;shadow=0;strokeWidth=1;rounded=0;edgeStyle=orthogonalEdgeStyle;elbow=vertical;exitX=0.5;exitY=0;exitDx=0;exitDy=0;entryX=0.5;entryY=1;entryDx=0;entryDy=0;" parent="WIyWlLk6GJQsqaUBKTNV-1" source="olZNuqd292mdIsfCVhg7-110" target="olZNuqd292mdIsfCVhg7-66" edge="1">
                    <mxGeometry width="160" relative="1" as="geometry">
                        <mxPoint x="135" y="1840" as="sourcePoint"/>
                        <mxPoint x="130" y="1640" as="targetPoint"/>
                        <Array as="points">
                            <mxPoint x="175" y="2090"/>
                            <mxPoint x="30" y="2090"/>
                            <mxPoint x="30" y="1670"/>
                            <mxPoint x="175" y="1670"/>
                        </Array>
                    </mxGeometry>
                </mxCell>
                <mxCell id="olZNuqd292mdIsfCVhg7-139" value="" style="endArrow=block;endSize=10;endFill=0;shadow=0;strokeWidth=1;rounded=0;edgeStyle=elbowEdgeStyle;elbow=vertical;entryX=0.5;entryY=1;entryDx=0;entryDy=0;exitX=0.5;exitY=0;exitDx=0;exitDy=0;" parent="WIyWlLk6GJQsqaUBKTNV-1" source="olZNuqd292mdIsfCVhg7-127" target="olZNuqd292mdIsfCVhg7-122" edge="1">
                    <mxGeometry width="160" relative="1" as="geometry">
                        <mxPoint x="1342" y="1902" as="sourcePoint"/>
                        <mxPoint x="1302" y="1820" as="targetPoint"/>
                    </mxGeometry>
                </mxCell>
                <mxCell id="olZNuqd292mdIsfCVhg7-140" value="" style="endArrow=block;endSize=10;endFill=0;shadow=0;strokeWidth=1;rounded=0;edgeStyle=orthogonalEdgeStyle;elbow=vertical;entryX=0.5;entryY=1;entryDx=0;entryDy=0;exitX=0.5;exitY=0;exitDx=0;exitDy=0;" parent="WIyWlLk6GJQsqaUBKTNV-1" source="olZNuqd292mdIsfCVhg7-133" target="olZNuqd292mdIsfCVhg7-122" edge="1">
                    <mxGeometry width="160" relative="1" as="geometry">
                        <mxPoint x="890" y="2402" as="sourcePoint"/>
                        <mxPoint x="920" y="2120" as="targetPoint"/>
                        <Array as="points">
                            <mxPoint x="880" y="1620"/>
                            <mxPoint x="770" y="1620"/>
                            <mxPoint x="770" y="1470"/>
                            <mxPoint x="880" y="1470"/>
                        </Array>
                    </mxGeometry>
                </mxCell>
                <mxCell id="olZNuqd292mdIsfCVhg7-141" value="" style="edgeStyle=orthogonalEdgeStyle;rounded=0;orthogonalLoop=1;jettySize=auto;html=1;entryX=0.5;entryY=0;entryDx=0;entryDy=0;endArrow=none;endFill=0;startArrow=diamondThin;startFill=1;startSize=12;exitX=0.5;exitY=1;exitDx=0;exitDy=0;" parent="WIyWlLk6GJQsqaUBKTNV-1" source="RiHCerz2gjzvpgdkcuPO-51" target="RiHCerz2gjzvpgdkcuPO-78" edge="1">
                    <mxGeometry x="0.1404" y="-10" relative="1" as="geometry">
                        <mxPoint x="294.0000000000002" y="800" as="targetPoint"/>
                        <mxPoint as="offset"/>
                        <mxPoint x="250" y="740" as="sourcePoint"/>
                        <Array as="points">
                            <mxPoint x="454" y="780"/>
                            <mxPoint x="230" y="780"/>
                        </Array>
                    </mxGeometry>
                </mxCell>
                <mxCell id="olZNuqd292mdIsfCVhg7-142" value="instantiated by" style="edgeStyle=orthogonalEdgeStyle;rounded=0;orthogonalLoop=1;jettySize=auto;html=1;entryX=0.5;entryY=0;entryDx=0;entryDy=0;endArrow=none;endFill=0;startArrow=diamondThin;startFill=1;startSize=12;exitX=0.5;exitY=1;exitDx=0;exitDy=0;" parent="WIyWlLk6GJQsqaUBKTNV-1" source="RiHCerz2gjzvpgdkcuPO-23" target="RiHCerz2gjzvpgdkcuPO-78" edge="1">
                    <mxGeometry x="0.4513" y="10" relative="1" as="geometry">
                        <mxPoint x="241" y="790" as="targetPoint"/>
                        <mxPoint as="offset"/>
                        <mxPoint x="464.0000000000002" y="550" as="sourcePoint"/>
                        <Array as="points">
                            <mxPoint x="175" y="780"/>
                            <mxPoint x="230" y="780"/>
                        </Array>
                    </mxGeometry>
                </mxCell>
                <mxCell id="olZNuqd292mdIsfCVhg7-143" value="" style="endArrow=block;endSize=10;endFill=0;shadow=0;strokeWidth=1;rounded=0;edgeStyle=elbowEdgeStyle;elbow=vertical;exitX=0.5;exitY=0;exitDx=0;exitDy=0;entryX=0.5;entryY=1;entryDx=0;entryDy=0;" parent="WIyWlLk6GJQsqaUBKTNV-1" source="olZNuqd292mdIsfCVhg7-66" target="RiHCerz2gjzvpgdkcuPO-78" edge="1">
                    <mxGeometry width="160" relative="1" as="geometry">
                        <mxPoint x="444.0000000000002" y="1510" as="sourcePoint"/>
                        <mxPoint x="444.0000000000002" y="1452" as="targetPoint"/>
                    </mxGeometry>
                </mxCell>
                <mxCell id="olZNuqd292mdIsfCVhg7-144" value="" style="endArrow=block;endSize=10;endFill=0;shadow=0;strokeWidth=1;rounded=0;edgeStyle=elbowEdgeStyle;elbow=vertical;exitX=0.5;exitY=0;exitDx=0;exitDy=0;entryX=0.5;entryY=1;entryDx=0;entryDy=0;" parent="WIyWlLk6GJQsqaUBKTNV-1" source="olZNuqd292mdIsfCVhg7-25" target="RiHCerz2gjzvpgdkcuPO-78" edge="1">
                    <mxGeometry width="160" relative="1" as="geometry">
                        <mxPoint x="185" y="1370" as="sourcePoint"/>
                        <mxPoint x="230" y="1300" as="targetPoint"/>
                    </mxGeometry>
                </mxCell>
                <mxCell id="olZNuqd292mdIsfCVhg7-145" value="" style="endArrow=block;endSize=10;endFill=0;shadow=0;strokeWidth=1;rounded=0;edgeStyle=elbowEdgeStyle;elbow=vertical;exitX=0.5;exitY=0;exitDx=0;exitDy=0;entryX=0.5;entryY=1;entryDx=0;entryDy=0;" parent="WIyWlLk6GJQsqaUBKTNV-1" source="olZNuqd292mdIsfCVhg7-4" target="RiHCerz2gjzvpgdkcuPO-78" edge="1">
                    <mxGeometry width="160" relative="1" as="geometry">
                        <mxPoint x="444" y="1370" as="sourcePoint"/>
                        <mxPoint x="320" y="1320" as="targetPoint"/>
                    </mxGeometry>
                </mxCell>
                <mxCell id="olZNuqd292mdIsfCVhg7-146" value="" style="endArrow=block;endSize=10;endFill=0;shadow=0;strokeWidth=1;rounded=0;edgeStyle=elbowEdgeStyle;elbow=vertical;exitX=0.5;exitY=0;exitDx=0;exitDy=0;entryX=0.5;entryY=1;entryDx=0;entryDy=0;" parent="WIyWlLk6GJQsqaUBKTNV-1" source="olZNuqd292mdIsfCVhg7-122" target="RiHCerz2gjzvpgdkcuPO-78" edge="1">
                    <mxGeometry width="160" relative="1" as="geometry">
                        <mxPoint x="670" y="1370" as="sourcePoint"/>
                        <mxPoint x="160" y="1310" as="targetPoint"/>
                        <Array as="points">
                            <mxPoint x="560" y="1340"/>
                        </Array>
                    </mxGeometry>
                </mxCell>
                <mxCell id="RiHCerz2gjzvpgdkcuPO-23" value="ObjectManager" style="swimlane;fontStyle=3;align=center;verticalAlign=top;childLayout=stackLayout;horizontal=1;startSize=26;horizontalStack=0;resizeParent=1;resizeLast=0;collapsible=1;marginBottom=0;rounded=0;shadow=0;strokeWidth=1;" parent="WIyWlLk6GJQsqaUBKTNV-1" vertex="1">
                    <mxGeometry x="40" y="400" width="270" height="350" as="geometry">
                        <mxRectangle x="110" y="780" width="160" height="26" as="alternateBounds"/>
                    </mxGeometry>
                </mxCell>
                <mxCell id="RiHCerz2gjzvpgdkcuPO-24" value="-m_player: Player" style="text;align=left;verticalAlign=middle;spacingLeft=4;spacingRight=4;overflow=hidden;rotatable=0;points=[[0,0.5],[1,0.5]];portConstraint=eastwest;imageHeight=18;" parent="RiHCerz2gjzvpgdkcuPO-23" vertex="1">
                    <mxGeometry y="26" width="270" height="20" as="geometry"/>
                </mxCell>
                <mxCell id="RiHCerz2gjzvpgdkcuPO-25" value="-m_vector_movable: vector&lt;MovableObject&gt;" style="text;align=left;verticalAlign=middle;spacingLeft=4;spacingRight=4;overflow=hidden;rotatable=0;points=[[0,0.5],[1,0.5]];portConstraint=eastwest;imageHeight=18;" parent="RiHCerz2gjzvpgdkcuPO-23" vertex="1">
                    <mxGeometry y="46" width="270" height="20" as="geometry"/>
                </mxCell>
                <mxCell id="RiHCerz2gjzvpgdkcuPO-32" value="-m_vector_immovable: vector&lt;GameObject&gt;" style="text;align=left;verticalAlign=middle;spacingLeft=4;spacingRight=4;overflow=hidden;rotatable=0;points=[[0,0.5],[1,0.5]];portConstraint=eastwest;imageHeight=18;" parent="RiHCerz2gjzvpgdkcuPO-23" vertex="1">
                    <mxGeometry y="66" width="270" height="20" as="geometry"/>
                </mxCell>
                <mxCell id="RiHCerz2gjzvpgdkcuPO-27" value="" style="line;html=1;strokeWidth=1;align=left;verticalAlign=middle;spacingTop=-1;spacingLeft=3;spacingRight=3;rotatable=0;labelPosition=right;points=[];portConstraint=eastwest;" parent="RiHCerz2gjzvpgdkcuPO-23" vertex="1">
                    <mxGeometry y="86" width="270" height="8" as="geometry"/>
                </mxCell>
                <mxCell id="RiHCerz2gjzvpgdkcuPO-28" value="+ObjectManager(): ObjectManager" style="text;align=left;verticalAlign=middle;spacingLeft=4;spacingRight=4;overflow=hidden;rotatable=0;points=[[0,0.5],[1,0.5]];portConstraint=eastwest;rounded=0;shadow=0;html=0;resizeHeight=0;" parent="RiHCerz2gjzvpgdkcuPO-23" vertex="1">
                    <mxGeometry y="94" width="270" height="20" as="geometry"/>
                </mxCell>
                <mxCell id="RiHCerz2gjzvpgdkcuPO-47" value="" style="line;html=1;strokeWidth=1;align=left;verticalAlign=middle;spacingTop=-1;spacingLeft=3;spacingRight=3;rotatable=0;labelPosition=right;points=[];portConstraint=eastwest;" parent="RiHCerz2gjzvpgdkcuPO-23" vertex="1">
                    <mxGeometry y="114" width="270" height="8" as="geometry"/>
                </mxCell>
                <mxCell id="RiHCerz2gjzvpgdkcuPO-29" value="+GetPlayer(): Player" style="text;align=left;verticalAlign=middle;spacingLeft=4;spacingRight=4;overflow=hidden;rotatable=0;points=[[0,0.5],[1,0.5]];portConstraint=eastwest;rounded=0;shadow=0;html=0;resizeHeight=0;" parent="RiHCerz2gjzvpgdkcuPO-23" vertex="1">
                    <mxGeometry y="122" width="270" height="20" as="geometry"/>
                </mxCell>
                <mxCell id="RiHCerz2gjzvpgdkcuPO-30" value="+GetMovables(): vector&lt;MovableObject&gt;" style="text;align=left;verticalAlign=middle;spacingLeft=4;spacingRight=4;overflow=hidden;rotatable=0;points=[[0,0.5],[1,0.5]];portConstraint=eastwest;rounded=0;shadow=0;html=0;resizeHeight=0;" parent="RiHCerz2gjzvpgdkcuPO-23" vertex="1">
                    <mxGeometry y="142" width="270" height="20" as="geometry"/>
                </mxCell>
                <mxCell id="RiHCerz2gjzvpgdkcuPO-42" value="+GetImmovables(): vector&lt;GameObject&gt;" style="text;align=left;verticalAlign=middle;spacingLeft=4;spacingRight=4;overflow=hidden;rotatable=0;points=[[0,0.5],[1,0.5]];portConstraint=eastwest;rounded=0;shadow=0;html=0;resizeHeight=0;" parent="RiHCerz2gjzvpgdkcuPO-23" vertex="1">
                    <mxGeometry y="162" width="270" height="20" as="geometry"/>
                </mxCell>
                <mxCell id="RiHCerz2gjzvpgdkcuPO-31" value="+AddMovable(object: MovableObject): void" style="text;align=left;verticalAlign=middle;spacingLeft=4;spacingRight=4;overflow=hidden;rotatable=0;points=[[0,0.5],[1,0.5]];portConstraint=eastwest;rounded=0;shadow=0;html=0;resizeHeight=0;" parent="RiHCerz2gjzvpgdkcuPO-23" vertex="1">
                    <mxGeometry y="182" width="270" height="20" as="geometry"/>
                </mxCell>
                <mxCell id="RiHCerz2gjzvpgdkcuPO-43" value="+AddImmovable(object: GameObject): void" style="text;align=left;verticalAlign=middle;spacingLeft=4;spacingRight=4;overflow=hidden;rotatable=0;points=[[0,0.5],[1,0.5]];portConstraint=eastwest;rounded=0;shadow=0;html=0;resizeHeight=0;" parent="RiHCerz2gjzvpgdkcuPO-23" vertex="1">
                    <mxGeometry y="202" width="270" height="20" as="geometry"/>
                </mxCell>
                <mxCell id="RiHCerz2gjzvpgdkcuPO-46" value="+ResetPlayer(): void" style="text;align=left;verticalAlign=middle;spacingLeft=4;spacingRight=4;overflow=hidden;rotatable=0;points=[[0,0.5],[1,0.5]];portConstraint=eastwest;rounded=0;shadow=0;html=0;resizeHeight=0;" parent="RiHCerz2gjzvpgdkcuPO-23" vertex="1">
                    <mxGeometry y="222" width="270" height="20" as="geometry"/>
                </mxCell>
                <mxCell id="RiHCerz2gjzvpgdkcuPO-44" value="+RemoveMovable(object: MovableObject): void" style="text;align=left;verticalAlign=middle;spacingLeft=4;spacingRight=4;overflow=hidden;rotatable=0;points=[[0,0.5],[1,0.5]];portConstraint=eastwest;rounded=0;shadow=0;html=0;resizeHeight=0;" parent="RiHCerz2gjzvpgdkcuPO-23" vertex="1">
                    <mxGeometry y="242" width="270" height="20" as="geometry"/>
                </mxCell>
                <mxCell id="RiHCerz2gjzvpgdkcuPO-45" value="+RemoveImmovable(object: GameObject): void" style="text;align=left;verticalAlign=middle;spacingLeft=4;spacingRight=4;overflow=hidden;rotatable=0;points=[[0,0.5],[1,0.5]];portConstraint=eastwest;rounded=0;shadow=0;html=0;resizeHeight=0;" parent="RiHCerz2gjzvpgdkcuPO-23" vertex="1">
                    <mxGeometry y="262" width="270" height="20" as="geometry"/>
                </mxCell>
                <mxCell id="RiHCerz2gjzvpgdkcuPO-49" value="+RemoveAllMovables(): void" style="text;align=left;verticalAlign=middle;spacingLeft=4;spacingRight=4;overflow=hidden;rotatable=0;points=[[0,0.5],[1,0.5]];portConstraint=eastwest;rounded=0;shadow=0;html=0;resizeHeight=0;" parent="RiHCerz2gjzvpgdkcuPO-23" vertex="1">
                    <mxGeometry y="282" width="270" height="20" as="geometry"/>
                </mxCell>
                <mxCell id="RiHCerz2gjzvpgdkcuPO-50" value="+RemoveAllImmovables(): void" style="text;align=left;verticalAlign=middle;spacingLeft=4;spacingRight=4;overflow=hidden;rotatable=0;points=[[0,0.5],[1,0.5]];portConstraint=eastwest;rounded=0;shadow=0;html=0;resizeHeight=0;" parent="RiHCerz2gjzvpgdkcuPO-23" vertex="1">
                    <mxGeometry y="302" width="270" height="20" as="geometry"/>
                </mxCell>
                <mxCell id="32" value="+Clear(): void" style="text;align=left;verticalAlign=middle;spacingLeft=4;spacingRight=4;overflow=hidden;rotatable=0;points=[[0,0.5],[1,0.5]];portConstraint=eastwest;rounded=0;shadow=0;html=0;resizeHeight=0;" vertex="1" parent="RiHCerz2gjzvpgdkcuPO-23">
                    <mxGeometry y="322" width="270" height="20" as="geometry"/>
                </mxCell>
                <mxCell id="RiHCerz2gjzvpgdkcuPO-51" value="ObjectGenerator" style="swimlane;fontStyle=3;align=center;verticalAlign=top;childLayout=stackLayout;horizontal=1;startSize=26;horizontalStack=0;resizeParent=1;resizeLast=0;collapsible=1;marginBottom=0;rounded=0;shadow=0;strokeWidth=1;" parent="WIyWlLk6GJQsqaUBKTNV-1" vertex="1">
                    <mxGeometry x="328" y="400" width="252" height="150" as="geometry">
                        <mxRectangle x="110" y="780" width="160" height="26" as="alternateBounds"/>
                    </mxGeometry>
                </mxCell>
                <mxCell id="RiHCerz2gjzvpgdkcuPO-52" value="-level: int" style="text;align=left;verticalAlign=middle;spacingLeft=4;spacingRight=4;overflow=hidden;rotatable=0;points=[[0,0.5],[1,0.5]];portConstraint=eastwest;imageHeight=18;" parent="RiHCerz2gjzvpgdkcuPO-51" vertex="1">
                    <mxGeometry y="26" width="252" height="20" as="geometry"/>
                </mxCell>
                <mxCell id="RiHCerz2gjzvpgdkcuPO-69" value="-chance_map: float[][]" style="text;align=left;verticalAlign=middle;spacingLeft=4;spacingRight=4;overflow=hidden;rotatable=0;points=[[0,0.5],[1,0.5]];portConstraint=eastwest;imageHeight=18;fontStyle=4" parent="RiHCerz2gjzvpgdkcuPO-51" vertex="1">
                    <mxGeometry y="46" width="252" height="20" as="geometry"/>
                </mxCell>
                <mxCell id="RiHCerz2gjzvpgdkcuPO-55" value="" style="line;html=1;strokeWidth=1;align=left;verticalAlign=middle;spacingTop=-1;spacingLeft=3;spacingRight=3;rotatable=0;labelPosition=right;points=[];portConstraint=eastwest;" parent="RiHCerz2gjzvpgdkcuPO-51" vertex="1">
                    <mxGeometry y="66" width="252" height="8" as="geometry"/>
                </mxCell>
                <mxCell id="RiHCerz2gjzvpgdkcuPO-56" value="+ObjectGenerator(): ObjectGenerator" style="text;align=left;verticalAlign=middle;spacingLeft=4;spacingRight=4;overflow=hidden;rotatable=0;points=[[0,0.5],[1,0.5]];portConstraint=eastwest;rounded=0;shadow=0;html=0;resizeHeight=0;" parent="RiHCerz2gjzvpgdkcuPO-51" vertex="1">
                    <mxGeometry y="74" width="252" height="20" as="geometry"/>
                </mxCell>
                <mxCell id="RiHCerz2gjzvpgdkcuPO-57" value="" style="line;html=1;strokeWidth=1;align=left;verticalAlign=middle;spacingTop=-1;spacingLeft=3;spacingRight=3;rotatable=0;labelPosition=right;points=[];portConstraint=eastwest;" parent="RiHCerz2gjzvpgdkcuPO-51" vertex="1">
                    <mxGeometry y="94" width="252" height="8" as="geometry"/>
                </mxCell>
                <mxCell id="RiHCerz2gjzvpgdkcuPO-58" value="+SetLevel(level: int): void" style="text;align=left;verticalAlign=middle;spacingLeft=4;spacingRight=4;overflow=hidden;rotatable=0;points=[[0,0.5],[1,0.5]];portConstraint=eastwest;rounded=0;shadow=0;html=0;resizeHeight=0;" parent="RiHCerz2gjzvpgdkcuPO-51" vertex="1">
                    <mxGeometry y="102" width="252" height="20" as="geometry"/>
                </mxCell>
                <mxCell id="RiHCerz2gjzvpgdkcuPO-67" value="+Generate(objectManager: ObjectManager&amp;)" style="text;align=left;verticalAlign=middle;spacingLeft=4;spacingRight=4;overflow=hidden;rotatable=0;points=[[0,0.5],[1,0.5]];portConstraint=eastwest;rounded=0;shadow=0;html=0;resizeHeight=0;" parent="RiHCerz2gjzvpgdkcuPO-51" vertex="1">
                    <mxGeometry y="122" width="252" height="20" as="geometry"/>
                </mxCell>
                <mxCell id="RiHCerz2gjzvpgdkcuPO-70" value="InputManager" style="swimlane;fontStyle=3;align=center;verticalAlign=top;childLayout=stackLayout;horizontal=1;startSize=26;horizontalStack=0;resizeParent=1;resizeLast=0;collapsible=1;marginBottom=0;rounded=0;shadow=0;strokeWidth=1;" parent="WIyWlLk6GJQsqaUBKTNV-1" vertex="1">
                    <mxGeometry x="620" y="400" width="182" height="130" as="geometry">
                        <mxRectangle x="110" y="780" width="160" height="26" as="alternateBounds"/>
                    </mxGeometry>
                </mxCell>
                <mxCell id="RiHCerz2gjzvpgdkcuPO-71" value="-input: int" style="text;align=left;verticalAlign=middle;spacingLeft=4;spacingRight=4;overflow=hidden;rotatable=0;points=[[0,0.5],[1,0.5]];portConstraint=eastwest;imageHeight=18;" parent="RiHCerz2gjzvpgdkcuPO-70" vertex="1">
                    <mxGeometry y="26" width="182" height="20" as="geometry"/>
                </mxCell>
                <mxCell id="RiHCerz2gjzvpgdkcuPO-73" value="" style="line;html=1;strokeWidth=1;align=left;verticalAlign=middle;spacingTop=-1;spacingLeft=3;spacingRight=3;rotatable=0;labelPosition=right;points=[];portConstraint=eastwest;" parent="RiHCerz2gjzvpgdkcuPO-70" vertex="1">
                    <mxGeometry y="46" width="182" height="8" as="geometry"/>
                </mxCell>
                <mxCell id="RiHCerz2gjzvpgdkcuPO-74" value="+InputManager(): InputManager" style="text;align=left;verticalAlign=middle;spacingLeft=4;spacingRight=4;overflow=hidden;rotatable=0;points=[[0,0.5],[1,0.5]];portConstraint=eastwest;rounded=0;shadow=0;html=0;resizeHeight=0;" parent="RiHCerz2gjzvpgdkcuPO-70" vertex="1">
                    <mxGeometry y="54" width="182" height="20" as="geometry"/>
                </mxCell>
                <mxCell id="RiHCerz2gjzvpgdkcuPO-75" value="" style="line;html=1;strokeWidth=1;align=left;verticalAlign=middle;spacingTop=-1;spacingLeft=3;spacingRight=3;rotatable=0;labelPosition=right;points=[];portConstraint=eastwest;" parent="RiHCerz2gjzvpgdkcuPO-70" vertex="1">
                    <mxGeometry y="74" width="182" height="8" as="geometry"/>
                </mxCell>
                <mxCell id="RiHCerz2gjzvpgdkcuPO-76" value="+ListenInput(): void" style="text;align=left;verticalAlign=middle;spacingLeft=4;spacingRight=4;overflow=hidden;rotatable=0;points=[[0,0.5],[1,0.5]];portConstraint=eastwest;rounded=0;shadow=0;html=0;resizeHeight=0;" parent="RiHCerz2gjzvpgdkcuPO-70" vertex="1">
                    <mxGeometry y="82" width="182" height="20" as="geometry"/>
                </mxCell>
                <mxCell id="RiHCerz2gjzvpgdkcuPO-77" value="+GetInput(): int" style="text;align=left;verticalAlign=middle;spacingLeft=4;spacingRight=4;overflow=hidden;rotatable=0;points=[[0,0.5],[1,0.5]];portConstraint=eastwest;rounded=0;shadow=0;html=0;resizeHeight=0;" parent="RiHCerz2gjzvpgdkcuPO-70" vertex="1">
                    <mxGeometry y="102" width="182" height="20" as="geometry"/>
                </mxCell>
                <mxCell id="13" value="SceneManager" style="swimlane;fontStyle=3;align=center;verticalAlign=top;childLayout=stackLayout;horizontal=1;startSize=26;horizontalStack=0;resizeParent=1;resizeLast=0;collapsible=1;marginBottom=0;rounded=0;shadow=0;strokeWidth=1;" parent="WIyWlLk6GJQsqaUBKTNV-1" vertex="1">
                    <mxGeometry x="819" y="400" width="311" height="170" as="geometry">
                        <mxRectangle x="110" y="780" width="160" height="26" as="alternateBounds"/>
                    </mxGeometry>
                </mxCell>
                <mxCell id="14" value="-size_x: int" style="text;align=left;verticalAlign=middle;spacingLeft=4;spacingRight=4;overflow=hidden;rotatable=0;points=[[0,0.5],[1,0.5]];portConstraint=eastwest;imageHeight=18;" parent="13" vertex="1">
                    <mxGeometry y="26" width="311" height="20" as="geometry"/>
                </mxCell>
                <mxCell id="20" value="-size_y: int" style="text;align=left;verticalAlign=middle;spacingLeft=4;spacingRight=4;overflow=hidden;rotatable=0;points=[[0,0.5],[1,0.5]];portConstraint=eastwest;imageHeight=18;" parent="13" vertex="1">
                    <mxGeometry y="46" width="311" height="20" as="geometry"/>
                </mxCell>
                <mxCell id="15" value="" style="line;html=1;strokeWidth=1;align=left;verticalAlign=middle;spacingTop=-1;spacingLeft=3;spacingRight=3;rotatable=0;labelPosition=right;points=[];portConstraint=eastwest;" parent="13" vertex="1">
                    <mxGeometry y="66" width="311" height="8" as="geometry"/>
                </mxCell>
                <mxCell id="16" value="+SceneManager(): SceneManager" style="text;align=left;verticalAlign=middle;spacingLeft=4;spacingRight=4;overflow=hidden;rotatable=0;points=[[0,0.5],[1,0.5]];portConstraint=eastwest;rounded=0;shadow=0;html=0;resizeHeight=0;" parent="13" vertex="1">
                    <mxGeometry y="74" width="311" height="20" as="geometry"/>
                </mxCell>
                <mxCell id="21" value="+SceneManager(size_x: int, size_y: int): SceneManager" style="text;align=left;verticalAlign=middle;spacingLeft=4;spacingRight=4;overflow=hidden;rotatable=0;points=[[0,0.5],[1,0.5]];portConstraint=eastwest;rounded=0;shadow=0;html=0;resizeHeight=0;" parent="13" vertex="1">
                    <mxGeometry y="94" width="311" height="20" as="geometry"/>
                </mxCell>
                <mxCell id="17" value="" style="line;html=1;strokeWidth=1;align=left;verticalAlign=middle;spacingTop=-1;spacingLeft=3;spacingRight=3;rotatable=0;labelPosition=right;points=[];portConstraint=eastwest;" parent="13" vertex="1">
                    <mxGeometry y="114" width="311" height="8" as="geometry"/>
                </mxCell>
                <mxCell id="18" value="+Render(manager: ObjectManager&amp;): void" style="text;align=left;verticalAlign=middle;spacingLeft=4;spacingRight=4;overflow=hidden;rotatable=0;points=[[0,0.5],[1,0.5]];portConstraint=eastwest;rounded=0;shadow=0;html=0;resizeHeight=0;" parent="13" vertex="1">
                    <mxGeometry y="122" width="311" height="20" as="geometry"/>
                </mxCell>
                <mxCell id="19" value="+GetInput(): int" style="text;align=left;verticalAlign=middle;spacingLeft=4;spacingRight=4;overflow=hidden;rotatable=0;points=[[0,0.5],[1,0.5]];portConstraint=eastwest;rounded=0;shadow=0;html=0;resizeHeight=0;" parent="13" vertex="1">
                    <mxGeometry y="142" width="311" height="20" as="geometry"/>
                </mxCell>
                <mxCell id="RiHCerz2gjzvpgdkcuPO-78" value="GameObject" style="swimlane;fontStyle=3;align=center;verticalAlign=top;childLayout=stackLayout;horizontal=1;startSize=26;horizontalStack=0;resizeParent=1;resizeLast=0;collapsible=1;marginBottom=0;rounded=0;shadow=0;strokeWidth=1;" parent="WIyWlLk6GJQsqaUBKTNV-1" vertex="1">
                    <mxGeometry x="40" y="810" width="380" height="500" as="geometry">
                        <mxRectangle x="110" y="780" width="160" height="26" as="alternateBounds"/>
                    </mxGeometry>
                </mxCell>
                <mxCell id="olZNuqd292mdIsfCVhg7-15" value="-counter: int" style="text;align=left;verticalAlign=middle;spacingLeft=4;spacingRight=4;overflow=hidden;rotatable=0;points=[[0,0.5],[1,0.5]];portConstraint=eastwest;imageHeight=18;fontStyle=4" parent="RiHCerz2gjzvpgdkcuPO-78" vertex="1">
                    <mxGeometry y="26" width="380" height="20" as="geometry"/>
                </mxCell>
                <mxCell id="RiHCerz2gjzvpgdkcuPO-79" value="+object_id: int" style="text;align=left;verticalAlign=middle;spacingLeft=4;spacingRight=4;overflow=hidden;rotatable=0;points=[[0,0.5],[1,0.5]];portConstraint=eastwest;imageHeight=18;fontStyle=0" parent="RiHCerz2gjzvpgdkcuPO-78" vertex="1">
                    <mxGeometry y="46" width="380" height="20" as="geometry"/>
                </mxCell>
                <mxCell id="olZNuqd292mdIsfCVhg7-14" value="-center_x: float" style="text;align=left;verticalAlign=middle;spacingLeft=4;spacingRight=4;overflow=hidden;rotatable=0;points=[[0,0.5],[1,0.5]];portConstraint=eastwest;imageHeight=18;" parent="RiHCerz2gjzvpgdkcuPO-78" vertex="1">
                    <mxGeometry y="66" width="380" height="20" as="geometry"/>
                </mxCell>
                <mxCell id="RiHCerz2gjzvpgdkcuPO-80" value="-center_y: float" style="text;align=left;verticalAlign=middle;spacingLeft=4;spacingRight=4;overflow=hidden;rotatable=0;points=[[0,0.5],[1,0.5]];portConstraint=eastwest;imageHeight=18;fontStyle=0" parent="RiHCerz2gjzvpgdkcuPO-78" vertex="1">
                    <mxGeometry y="86" width="380" height="20" as="geometry"/>
                </mxCell>
                <mxCell id="RiHCerz2gjzvpgdkcuPO-87" value="-width: float" style="text;align=left;verticalAlign=middle;spacingLeft=4;spacingRight=4;overflow=hidden;rotatable=0;points=[[0,0.5],[1,0.5]];portConstraint=eastwest;imageHeight=18;fontStyle=0" parent="RiHCerz2gjzvpgdkcuPO-78" vertex="1">
                    <mxGeometry y="106" width="380" height="20" as="geometry"/>
                </mxCell>
                <mxCell id="RiHCerz2gjzvpgdkcuPO-88" value="-height: float" style="text;align=left;verticalAlign=middle;spacingLeft=4;spacingRight=4;overflow=hidden;rotatable=0;points=[[0,0.5],[1,0.5]];portConstraint=eastwest;imageHeight=18;fontStyle=0" parent="RiHCerz2gjzvpgdkcuPO-78" vertex="1">
                    <mxGeometry y="126" width="380" height="20" as="geometry"/>
                </mxCell>
                <mxCell id="RiHCerz2gjzvpgdkcuPO-93" value="-texture: string" style="text;align=left;verticalAlign=middle;spacingLeft=4;spacingRight=4;overflow=hidden;rotatable=0;points=[[0,0.5],[1,0.5]];portConstraint=eastwest;imageHeight=18;fontStyle=0" parent="RiHCerz2gjzvpgdkcuPO-78" vertex="1">
                    <mxGeometry y="146" width="380" height="20" as="geometry"/>
                </mxCell>
                <mxCell id="RiHCerz2gjzvpgdkcuPO-81" value="" style="line;html=1;strokeWidth=1;align=left;verticalAlign=middle;spacingTop=-1;spacingLeft=3;spacingRight=3;rotatable=0;labelPosition=right;points=[];portConstraint=eastwest;" parent="RiHCerz2gjzvpgdkcuPO-78" vertex="1">
                    <mxGeometry y="166" width="380" height="8" as="geometry"/>
                </mxCell>
                <mxCell id="RiHCerz2gjzvpgdkcuPO-82" value="+GameObject(): GameObject" style="text;align=left;verticalAlign=middle;spacingLeft=4;spacingRight=4;overflow=hidden;rotatable=0;points=[[0,0.5],[1,0.5]];portConstraint=eastwest;rounded=0;shadow=0;html=0;resizeHeight=0;" parent="RiHCerz2gjzvpgdkcuPO-78" vertex="1">
                    <mxGeometry y="174" width="380" height="20" as="geometry"/>
                </mxCell>
                <mxCell id="RiHCerz2gjzvpgdkcuPO-86" value="+GameObject(x: float, y: float): GameObject" style="text;align=left;verticalAlign=middle;spacingLeft=4;spacingRight=4;overflow=hidden;rotatable=0;points=[[0,0.5],[1,0.5]];portConstraint=eastwest;rounded=0;shadow=0;html=0;resizeHeight=0;" parent="RiHCerz2gjzvpgdkcuPO-78" vertex="1">
                    <mxGeometry y="194" width="380" height="20" as="geometry"/>
                </mxCell>
                <mxCell id="RiHCerz2gjzvpgdkcuPO-89" value="+GameObject(x: float, y: float, width: float, height:float): GameObject" style="text;align=left;verticalAlign=middle;spacingLeft=4;spacingRight=4;overflow=hidden;rotatable=0;points=[[0,0.5],[1,0.5]];portConstraint=eastwest;rounded=0;shadow=0;html=0;resizeHeight=0;" parent="RiHCerz2gjzvpgdkcuPO-78" vertex="1">
                    <mxGeometry y="214" width="380" height="20" as="geometry"/>
                </mxCell>
                <mxCell id="olZNuqd292mdIsfCVhg7-16" value="" style="line;html=1;strokeWidth=1;align=left;verticalAlign=middle;spacingTop=-1;spacingLeft=3;spacingRight=3;rotatable=0;labelPosition=right;points=[];portConstraint=eastwest;" parent="RiHCerz2gjzvpgdkcuPO-78" vertex="1">
                    <mxGeometry y="234" width="380" height="8" as="geometry"/>
                </mxCell>
                <mxCell id="olZNuqd292mdIsfCVhg7-17" value="+operator==(o: const GameObject&amp;): bool" style="text;align=left;verticalAlign=middle;spacingLeft=4;spacingRight=4;overflow=hidden;rotatable=0;points=[[0,0.5],[1,0.5]];portConstraint=eastwest;rounded=0;shadow=0;html=0;resizeHeight=0;" parent="RiHCerz2gjzvpgdkcuPO-78" vertex="1">
                    <mxGeometry y="242" width="380" height="20" as="geometry"/>
                </mxCell>
                <mxCell id="RiHCerz2gjzvpgdkcuPO-83" value="" style="line;html=1;strokeWidth=1;align=left;verticalAlign=middle;spacingTop=-1;spacingLeft=3;spacingRight=3;rotatable=0;labelPosition=right;points=[];portConstraint=eastwest;" parent="RiHCerz2gjzvpgdkcuPO-78" vertex="1">
                    <mxGeometry y="262" width="380" height="8" as="geometry"/>
                </mxCell>
                <mxCell id="RiHCerz2gjzvpgdkcuPO-85" value="+GetCenterX(): float" style="text;align=left;verticalAlign=middle;spacingLeft=4;spacingRight=4;overflow=hidden;rotatable=0;points=[[0,0.5],[1,0.5]];portConstraint=eastwest;rounded=0;shadow=0;html=0;resizeHeight=0;" parent="RiHCerz2gjzvpgdkcuPO-78" vertex="1">
                    <mxGeometry y="270" width="380" height="20" as="geometry"/>
                </mxCell>
                <mxCell id="olZNuqd292mdIsfCVhg7-11" value="+GetTexture(): string" style="text;align=left;verticalAlign=middle;spacingLeft=4;spacingRight=4;overflow=hidden;rotatable=0;points=[[0,0.5],[1,0.5]];portConstraint=eastwest;rounded=0;shadow=0;html=0;resizeHeight=0;" parent="RiHCerz2gjzvpgdkcuPO-78" vertex="1">
                    <mxGeometry y="290" width="380" height="20" as="geometry"/>
                </mxCell>
                <mxCell id="RiHCerz2gjzvpgdkcuPO-95" value="+GetHeight(): float" style="text;align=left;verticalAlign=middle;spacingLeft=4;spacingRight=4;overflow=hidden;rotatable=0;points=[[0,0.5],[1,0.5]];portConstraint=eastwest;rounded=0;shadow=0;html=0;resizeHeight=0;" parent="RiHCerz2gjzvpgdkcuPO-78" vertex="1">
                    <mxGeometry y="310" width="380" height="20" as="geometry"/>
                </mxCell>
                <mxCell id="RiHCerz2gjzvpgdkcuPO-94" value="+GetWidth(): float" style="text;align=left;verticalAlign=middle;spacingLeft=4;spacingRight=4;overflow=hidden;rotatable=0;points=[[0,0.5],[1,0.5]];portConstraint=eastwest;rounded=0;shadow=0;html=0;resizeHeight=0;" parent="RiHCerz2gjzvpgdkcuPO-78" vertex="1">
                    <mxGeometry y="330" width="380" height="20" as="geometry"/>
                </mxCell>
                <mxCell id="RiHCerz2gjzvpgdkcuPO-92" value="+GetCenterY(): float" style="text;align=left;verticalAlign=middle;spacingLeft=4;spacingRight=4;overflow=hidden;rotatable=0;points=[[0,0.5],[1,0.5]];portConstraint=eastwest;rounded=0;shadow=0;html=0;resizeHeight=0;" parent="RiHCerz2gjzvpgdkcuPO-78" vertex="1">
                    <mxGeometry y="350" width="380" height="20" as="geometry"/>
                </mxCell>
                <mxCell id="RiHCerz2gjzvpgdkcuPO-90" value="+SetCenter(px: float, py: float): void" style="text;align=left;verticalAlign=middle;spacingLeft=4;spacingRight=4;overflow=hidden;rotatable=0;points=[[0,0.5],[1,0.5]];portConstraint=eastwest;rounded=0;shadow=0;html=0;resizeHeight=0;" parent="RiHCerz2gjzvpgdkcuPO-78" vertex="1">
                    <mxGeometry y="370" width="380" height="20" as="geometry"/>
                </mxCell>
                <mxCell id="RiHCerz2gjzvpgdkcuPO-91" value="+SetWidth(width: float): void" style="text;align=left;verticalAlign=middle;spacingLeft=4;spacingRight=4;overflow=hidden;rotatable=0;points=[[0,0.5],[1,0.5]];portConstraint=eastwest;rounded=0;shadow=0;html=0;resizeHeight=0;" parent="RiHCerz2gjzvpgdkcuPO-78" vertex="1">
                    <mxGeometry y="390" width="380" height="20" as="geometry"/>
                </mxCell>
                <mxCell id="RiHCerz2gjzvpgdkcuPO-96" value="+SetTexture(texture: string): void" style="text;align=left;verticalAlign=middle;spacingLeft=4;spacingRight=4;overflow=hidden;rotatable=0;points=[[0,0.5],[1,0.5]];portConstraint=eastwest;rounded=0;shadow=0;html=0;resizeHeight=0;" parent="RiHCerz2gjzvpgdkcuPO-78" vertex="1">
                    <mxGeometry y="410" width="380" height="20" as="geometry"/>
                </mxCell>
                <mxCell id="RiHCerz2gjzvpgdkcuPO-84" value="+SetHeight(height: float): void" style="text;align=left;verticalAlign=middle;spacingLeft=4;spacingRight=4;overflow=hidden;rotatable=0;points=[[0,0.5],[1,0.5]];portConstraint=eastwest;rounded=0;shadow=0;html=0;resizeHeight=0;" parent="RiHCerz2gjzvpgdkcuPO-78" vertex="1">
                    <mxGeometry y="430" width="380" height="20" as="geometry"/>
                </mxCell>
                <mxCell id="olZNuqd292mdIsfCVhg7-12" value="+HasIntersected(object: GameObject&amp;): boolean" style="text;align=left;verticalAlign=middle;spacingLeft=4;spacingRight=4;overflow=hidden;rotatable=0;points=[[0,0.5],[1,0.5]];portConstraint=eastwest;rounded=0;shadow=0;html=0;resizeHeight=0;fontStyle=0" parent="RiHCerz2gjzvpgdkcuPO-78" vertex="1">
                    <mxGeometry y="450" width="380" height="20" as="geometry"/>
                </mxCell>
                <mxCell id="RiHCerz2gjzvpgdkcuPO-97" value="+HitBy(object: GameObject&amp;): void" style="text;align=left;verticalAlign=middle;spacingLeft=4;spacingRight=4;overflow=hidden;rotatable=0;points=[[0,0.5],[1,0.5]];portConstraint=eastwest;rounded=0;shadow=0;html=0;resizeHeight=0;fontStyle=2" parent="RiHCerz2gjzvpgdkcuPO-78" vertex="1">
                    <mxGeometry y="470" width="380" height="20" as="geometry"/>
                </mxCell>
                <mxCell id="olZNuqd292mdIsfCVhg7-71" value="Player" style="swimlane;fontStyle=3;align=center;verticalAlign=top;childLayout=stackLayout;horizontal=1;startSize=26;horizontalStack=0;resizeParent=1;resizeLast=0;collapsible=1;marginBottom=0;rounded=0;shadow=0;strokeWidth=1;" parent="WIyWlLk6GJQsqaUBKTNV-1" vertex="1">
                    <mxGeometry x="40" y="1710" width="270" height="230" as="geometry">
                        <mxRectangle x="110" y="780" width="160" height="26" as="alternateBounds"/>
                    </mxGeometry>
                </mxCell>
                <mxCell id="8" value="-invincible_start_x: float" style="text;align=left;verticalAlign=middle;spacingLeft=4;spacingRight=4;overflow=hidden;rotatable=0;points=[[0,0.5],[1,0.5]];portConstraint=eastwest;rounded=0;shadow=0;html=0;resizeHeight=0;" parent="olZNuqd292mdIsfCVhg7-71" vertex="1">
                    <mxGeometry y="26" width="270" height="20" as="geometry"/>
                </mxCell>
                <mxCell id="12" value="-invincible_start_y: float" style="text;align=left;verticalAlign=middle;spacingLeft=4;spacingRight=4;overflow=hidden;rotatable=0;points=[[0,0.5],[1,0.5]];portConstraint=eastwest;rounded=0;shadow=0;html=0;resizeHeight=0;" parent="olZNuqd292mdIsfCVhg7-71" vertex="1">
                    <mxGeometry y="46" width="270" height="20" as="geometry"/>
                </mxCell>
                <mxCell id="11" value="-invincible_distance: float" style="text;align=left;verticalAlign=middle;spacingLeft=4;spacingRight=4;overflow=hidden;rotatable=0;points=[[0,0.5],[1,0.5]];portConstraint=eastwest;rounded=0;shadow=0;html=0;resizeHeight=0;" parent="olZNuqd292mdIsfCVhg7-71" vertex="1">
                    <mxGeometry y="66" width="270" height="20" as="geometry"/>
                </mxCell>
                <mxCell id="olZNuqd292mdIsfCVhg7-72" value="" style="line;html=1;strokeWidth=1;align=left;verticalAlign=middle;spacingTop=-1;spacingLeft=3;spacingRight=3;rotatable=0;labelPosition=right;points=[];portConstraint=eastwest;" parent="olZNuqd292mdIsfCVhg7-71" vertex="1">
                    <mxGeometry y="86" width="270" height="8" as="geometry"/>
                </mxCell>
                <mxCell id="olZNuqd292mdIsfCVhg7-73" value="+Player(): Player" style="text;align=left;verticalAlign=middle;spacingLeft=4;spacingRight=4;overflow=hidden;rotatable=0;points=[[0,0.5],[1,0.5]];portConstraint=eastwest;rounded=0;shadow=0;html=0;resizeHeight=0;" parent="olZNuqd292mdIsfCVhg7-71" vertex="1">
                    <mxGeometry y="94" width="270" height="20" as="geometry"/>
                </mxCell>
                <mxCell id="olZNuqd292mdIsfCVhg7-74" value="+Player(x: float, y: float): Player" style="text;align=left;verticalAlign=middle;spacingLeft=4;spacingRight=4;overflow=hidden;rotatable=0;points=[[0,0.5],[1,0.5]];portConstraint=eastwest;rounded=0;shadow=0;html=0;resizeHeight=0;" parent="olZNuqd292mdIsfCVhg7-71" vertex="1">
                    <mxGeometry y="114" width="270" height="20" as="geometry"/>
                </mxCell>
                <mxCell id="olZNuqd292mdIsfCVhg7-75" value="" style="line;html=1;strokeWidth=1;align=left;verticalAlign=middle;spacingTop=-1;spacingLeft=3;spacingRight=3;rotatable=0;labelPosition=right;points=[];portConstraint=eastwest;" parent="olZNuqd292mdIsfCVhg7-71" vertex="1">
                    <mxGeometry y="134" width="270" height="8" as="geometry"/>
                </mxCell>
                <mxCell id="27" value="+Move(): void" style="text;align=left;verticalAlign=middle;spacingLeft=4;spacingRight=4;overflow=hidden;rotatable=0;points=[[0,0.5],[1,0.5]];portConstraint=eastwest;rounded=0;shadow=0;html=0;resizeHeight=0;" parent="olZNuqd292mdIsfCVhg7-71" vertex="1">
                    <mxGeometry y="142" width="270" height="20" as="geometry"/>
                </mxCell>
                <mxCell id="9" value="+HasIntersected(object: GameObject&amp;): boolean" style="text;align=left;verticalAlign=middle;spacingLeft=4;spacingRight=4;overflow=hidden;rotatable=0;points=[[0,0.5],[1,0.5]];portConstraint=eastwest;rounded=0;shadow=0;html=0;resizeHeight=0;fontStyle=0" parent="olZNuqd292mdIsfCVhg7-71" vertex="1">
                    <mxGeometry y="162" width="270" height="20" as="geometry"/>
                </mxCell>
                <mxCell id="olZNuqd292mdIsfCVhg7-77" value="+HitBy(object: GameObject&amp;): void" style="text;align=left;verticalAlign=middle;spacingLeft=4;spacingRight=4;overflow=hidden;rotatable=0;points=[[0,0.5],[1,0.5]];portConstraint=eastwest;rounded=0;shadow=0;html=0;resizeHeight=0;fontStyle=0" parent="olZNuqd292mdIsfCVhg7-71" vertex="1">
                    <mxGeometry y="182" width="270" height="20" as="geometry"/>
                </mxCell>
                <mxCell id="10" value="+SetInvincibleDistance(distance: float)" style="text;align=left;verticalAlign=middle;spacingLeft=4;spacingRight=4;overflow=hidden;rotatable=0;points=[[0,0.5],[1,0.5]];portConstraint=eastwest;rounded=0;shadow=0;html=0;resizeHeight=0;fontStyle=0" parent="olZNuqd292mdIsfCVhg7-71" vertex="1">
                    <mxGeometry y="202" width="270" height="20" as="geometry"/>
                </mxCell>
                <mxCell id="olZNuqd292mdIsfCVhg7-38" value="Boost" style="swimlane;fontStyle=3;align=center;verticalAlign=top;childLayout=stackLayout;horizontal=1;startSize=26;horizontalStack=0;resizeParent=1;resizeLast=0;collapsible=1;marginBottom=0;rounded=0;shadow=0;strokeWidth=1;" parent="WIyWlLk6GJQsqaUBKTNV-1" vertex="1">
                    <mxGeometry x="560" y="1640" width="200" height="110" as="geometry">
                        <mxRectangle x="110" y="780" width="160" height="26" as="alternateBounds"/>
                    </mxGeometry>
                </mxCell>
                <mxCell id="olZNuqd292mdIsfCVhg7-39" value="" style="line;html=1;strokeWidth=1;align=left;verticalAlign=middle;spacingTop=-1;spacingLeft=3;spacingRight=3;rotatable=0;labelPosition=right;points=[];portConstraint=eastwest;" parent="olZNuqd292mdIsfCVhg7-38" vertex="1">
                    <mxGeometry y="26" width="200" height="8" as="geometry"/>
                </mxCell>
                <mxCell id="olZNuqd292mdIsfCVhg7-40" value="+Boost(): Boost" style="text;align=left;verticalAlign=middle;spacingLeft=4;spacingRight=4;overflow=hidden;rotatable=0;points=[[0,0.5],[1,0.5]];portConstraint=eastwest;rounded=0;shadow=0;html=0;resizeHeight=0;" parent="olZNuqd292mdIsfCVhg7-38" vertex="1">
                    <mxGeometry y="34" width="200" height="20" as="geometry"/>
                </mxCell>
                <mxCell id="olZNuqd292mdIsfCVhg7-41" value="+Boost(x: float, y: float): Boost" style="text;align=left;verticalAlign=middle;spacingLeft=4;spacingRight=4;overflow=hidden;rotatable=0;points=[[0,0.5],[1,0.5]];portConstraint=eastwest;rounded=0;shadow=0;html=0;resizeHeight=0;" parent="olZNuqd292mdIsfCVhg7-38" vertex="1">
                    <mxGeometry y="54" width="200" height="20" as="geometry"/>
                </mxCell>
                <mxCell id="olZNuqd292mdIsfCVhg7-42" value="" style="line;html=1;strokeWidth=1;align=left;verticalAlign=middle;spacingTop=-1;spacingLeft=3;spacingRight=3;rotatable=0;labelPosition=right;points=[];portConstraint=eastwest;" parent="olZNuqd292mdIsfCVhg7-38" vertex="1">
                    <mxGeometry y="74" width="200" height="8" as="geometry"/>
                </mxCell>
                <mxCell id="olZNuqd292mdIsfCVhg7-43" value="+HitBy(object: GameObject&amp;): void" style="text;align=left;verticalAlign=middle;spacingLeft=4;spacingRight=4;overflow=hidden;rotatable=0;points=[[0,0.5],[1,0.5]];portConstraint=eastwest;rounded=0;shadow=0;html=0;resizeHeight=0;fontStyle=0" parent="olZNuqd292mdIsfCVhg7-38" vertex="1">
                    <mxGeometry y="82" width="200" height="20" as="geometry"/>
                </mxCell>
                <mxCell id="olZNuqd292mdIsfCVhg7-57" value="Buoy" style="swimlane;fontStyle=3;align=center;verticalAlign=top;childLayout=stackLayout;horizontal=1;startSize=26;horizontalStack=0;resizeParent=1;resizeLast=0;collapsible=1;marginBottom=0;rounded=0;shadow=0;strokeWidth=1;" parent="WIyWlLk6GJQsqaUBKTNV-1" vertex="1">
                    <mxGeometry x="328" y="1640" width="212" height="110" as="geometry">
                        <mxRectangle x="110" y="780" width="160" height="26" as="alternateBounds"/>
                    </mxGeometry>
                </mxCell>
                <mxCell id="olZNuqd292mdIsfCVhg7-58" value="" style="line;html=1;strokeWidth=1;align=left;verticalAlign=middle;spacingTop=-1;spacingLeft=3;spacingRight=3;rotatable=0;labelPosition=right;points=[];portConstraint=eastwest;" parent="olZNuqd292mdIsfCVhg7-57" vertex="1">
                    <mxGeometry y="26" width="212" height="8" as="geometry"/>
                </mxCell>
                <mxCell id="olZNuqd292mdIsfCVhg7-59" value="+Buoy(): Buoy" style="text;align=left;verticalAlign=middle;spacingLeft=4;spacingRight=4;overflow=hidden;rotatable=0;points=[[0,0.5],[1,0.5]];portConstraint=eastwest;rounded=0;shadow=0;html=0;resizeHeight=0;" parent="olZNuqd292mdIsfCVhg7-57" vertex="1">
                    <mxGeometry y="34" width="212" height="20" as="geometry"/>
                </mxCell>
                <mxCell id="olZNuqd292mdIsfCVhg7-60" value="+Buoy(x: float, y: float): Buoy" style="text;align=left;verticalAlign=middle;spacingLeft=4;spacingRight=4;overflow=hidden;rotatable=0;points=[[0,0.5],[1,0.5]];portConstraint=eastwest;rounded=0;shadow=0;html=0;resizeHeight=0;" parent="olZNuqd292mdIsfCVhg7-57" vertex="1">
                    <mxGeometry y="54" width="212" height="20" as="geometry"/>
                </mxCell>
                <mxCell id="olZNuqd292mdIsfCVhg7-61" value="" style="line;html=1;strokeWidth=1;align=left;verticalAlign=middle;spacingTop=-1;spacingLeft=3;spacingRight=3;rotatable=0;labelPosition=right;points=[];portConstraint=eastwest;" parent="olZNuqd292mdIsfCVhg7-57" vertex="1">
                    <mxGeometry y="74" width="212" height="8" as="geometry"/>
                </mxCell>
                <mxCell id="olZNuqd292mdIsfCVhg7-63" value="+HitBy(object: GameObject&amp;): void" style="text;align=left;verticalAlign=middle;spacingLeft=4;spacingRight=4;overflow=hidden;rotatable=0;points=[[0,0.5],[1,0.5]];portConstraint=eastwest;rounded=0;shadow=0;html=0;resizeHeight=0;fontStyle=0" parent="olZNuqd292mdIsfCVhg7-57" vertex="1">
                    <mxGeometry y="82" width="212" height="20" as="geometry"/>
                </mxCell>
                <mxCell id="olZNuqd292mdIsfCVhg7-133" value="Current" style="swimlane;fontStyle=3;align=center;verticalAlign=top;childLayout=stackLayout;horizontal=1;startSize=26;horizontalStack=0;resizeParent=1;resizeLast=0;collapsible=1;marginBottom=0;rounded=0;shadow=0;strokeWidth=1;" parent="WIyWlLk6GJQsqaUBKTNV-1" vertex="1">
                    <mxGeometry x="780" y="1640" width="220" height="110" as="geometry">
                        <mxRectangle x="110" y="780" width="160" height="26" as="alternateBounds"/>
                    </mxGeometry>
                </mxCell>
                <mxCell id="olZNuqd292mdIsfCVhg7-134" value="" style="line;html=1;strokeWidth=1;align=left;verticalAlign=middle;spacingTop=-1;spacingLeft=3;spacingRight=3;rotatable=0;labelPosition=right;points=[];portConstraint=eastwest;" parent="olZNuqd292mdIsfCVhg7-133" vertex="1">
                    <mxGeometry y="26" width="220" height="8" as="geometry"/>
                </mxCell>
                <mxCell id="olZNuqd292mdIsfCVhg7-135" value="+Current(): Current" style="text;align=left;verticalAlign=middle;spacingLeft=4;spacingRight=4;overflow=hidden;rotatable=0;points=[[0,0.5],[1,0.5]];portConstraint=eastwest;rounded=0;shadow=0;html=0;resizeHeight=0;" parent="olZNuqd292mdIsfCVhg7-133" vertex="1">
                    <mxGeometry y="34" width="220" height="20" as="geometry"/>
                </mxCell>
                <mxCell id="olZNuqd292mdIsfCVhg7-136" value="+Current(x: float, y: float): Current" style="text;align=left;verticalAlign=middle;spacingLeft=4;spacingRight=4;overflow=hidden;rotatable=0;points=[[0,0.5],[1,0.5]];portConstraint=eastwest;rounded=0;shadow=0;html=0;resizeHeight=0;" parent="olZNuqd292mdIsfCVhg7-133" vertex="1">
                    <mxGeometry y="54" width="220" height="20" as="geometry"/>
                </mxCell>
                <mxCell id="olZNuqd292mdIsfCVhg7-137" value="" style="line;html=1;strokeWidth=1;align=left;verticalAlign=middle;spacingTop=-1;spacingLeft=3;spacingRight=3;rotatable=0;labelPosition=right;points=[];portConstraint=eastwest;" parent="olZNuqd292mdIsfCVhg7-133" vertex="1">
                    <mxGeometry y="74" width="220" height="8" as="geometry"/>
                </mxCell>
                <mxCell id="olZNuqd292mdIsfCVhg7-138" value="+HitBy(object: GameObject&amp;): void" style="text;align=left;verticalAlign=middle;spacingLeft=4;spacingRight=4;overflow=hidden;rotatable=0;points=[[0,0.5],[1,0.5]];portConstraint=eastwest;rounded=0;shadow=0;html=0;resizeHeight=0;fontStyle=0" parent="olZNuqd292mdIsfCVhg7-133" vertex="1">
                    <mxGeometry y="82" width="220" height="20" as="geometry"/>
                </mxCell>
                <mxCell id="olZNuqd292mdIsfCVhg7-127" value="Seaweed" style="swimlane;fontStyle=3;align=center;verticalAlign=top;childLayout=stackLayout;horizontal=1;startSize=26;horizontalStack=0;resizeParent=1;resizeLast=0;collapsible=1;marginBottom=0;rounded=0;shadow=0;strokeWidth=1;" parent="WIyWlLk6GJQsqaUBKTNV-1" vertex="1">
                    <mxGeometry x="780" y="1510" width="220" height="110" as="geometry">
                        <mxRectangle x="110" y="780" width="160" height="26" as="alternateBounds"/>
                    </mxGeometry>
                </mxCell>
                <mxCell id="olZNuqd292mdIsfCVhg7-128" value="" style="line;html=1;strokeWidth=1;align=left;verticalAlign=middle;spacingTop=-1;spacingLeft=3;spacingRight=3;rotatable=0;labelPosition=right;points=[];portConstraint=eastwest;" parent="olZNuqd292mdIsfCVhg7-127" vertex="1">
                    <mxGeometry y="26" width="220" height="8" as="geometry"/>
                </mxCell>
                <mxCell id="olZNuqd292mdIsfCVhg7-129" value="+Seaweed(): Seaweed" style="text;align=left;verticalAlign=middle;spacingLeft=4;spacingRight=4;overflow=hidden;rotatable=0;points=[[0,0.5],[1,0.5]];portConstraint=eastwest;rounded=0;shadow=0;html=0;resizeHeight=0;" parent="olZNuqd292mdIsfCVhg7-127" vertex="1">
                    <mxGeometry y="34" width="220" height="20" as="geometry"/>
                </mxCell>
                <mxCell id="olZNuqd292mdIsfCVhg7-130" value="+Seaweed(x: float, y: float): Seaweed" style="text;align=left;verticalAlign=middle;spacingLeft=4;spacingRight=4;overflow=hidden;rotatable=0;points=[[0,0.5],[1,0.5]];portConstraint=eastwest;rounded=0;shadow=0;html=0;resizeHeight=0;" parent="olZNuqd292mdIsfCVhg7-127" vertex="1">
                    <mxGeometry y="54" width="220" height="20" as="geometry"/>
                </mxCell>
                <mxCell id="olZNuqd292mdIsfCVhg7-131" value="" style="line;html=1;strokeWidth=1;align=left;verticalAlign=middle;spacingTop=-1;spacingLeft=3;spacingRight=3;rotatable=0;labelPosition=right;points=[];portConstraint=eastwest;" parent="olZNuqd292mdIsfCVhg7-127" vertex="1">
                    <mxGeometry y="74" width="220" height="8" as="geometry"/>
                </mxCell>
                <mxCell id="olZNuqd292mdIsfCVhg7-132" value="+HitBy(object: GameObject&amp;): void" style="text;align=left;verticalAlign=middle;spacingLeft=4;spacingRight=4;overflow=hidden;rotatable=0;points=[[0,0.5],[1,0.5]];portConstraint=eastwest;rounded=0;shadow=0;html=0;resizeHeight=0;fontStyle=0" parent="olZNuqd292mdIsfCVhg7-127" vertex="1">
                    <mxGeometry y="82" width="220" height="20" as="geometry"/>
                </mxCell>
                <mxCell id="olZNuqd292mdIsfCVhg7-122" value="Drawback" style="swimlane;fontStyle=3;align=center;verticalAlign=top;childLayout=stackLayout;horizontal=1;startSize=26;horizontalStack=0;resizeParent=1;resizeLast=0;collapsible=1;marginBottom=0;rounded=0;shadow=0;strokeWidth=1;" parent="WIyWlLk6GJQsqaUBKTNV-1" vertex="1">
                    <mxGeometry x="780" y="1370" width="220" height="82" as="geometry">
                        <mxRectangle x="110" y="780" width="160" height="26" as="alternateBounds"/>
                    </mxGeometry>
                </mxCell>
                <mxCell id="olZNuqd292mdIsfCVhg7-123" value="" style="line;html=1;strokeWidth=1;align=left;verticalAlign=middle;spacingTop=-1;spacingLeft=3;spacingRight=3;rotatable=0;labelPosition=right;points=[];portConstraint=eastwest;" parent="olZNuqd292mdIsfCVhg7-122" vertex="1">
                    <mxGeometry y="26" width="220" height="8" as="geometry"/>
                </mxCell>
                <mxCell id="olZNuqd292mdIsfCVhg7-124" value="+Drawback(): Drawback" style="text;align=left;verticalAlign=middle;spacingLeft=4;spacingRight=4;overflow=hidden;rotatable=0;points=[[0,0.5],[1,0.5]];portConstraint=eastwest;rounded=0;shadow=0;html=0;resizeHeight=0;" parent="olZNuqd292mdIsfCVhg7-122" vertex="1">
                    <mxGeometry y="34" width="220" height="20" as="geometry"/>
                </mxCell>
                <mxCell id="olZNuqd292mdIsfCVhg7-125" value="+Drawback(x: float, y: float): Drawback" style="text;align=left;verticalAlign=middle;spacingLeft=4;spacingRight=4;overflow=hidden;rotatable=0;points=[[0,0.5],[1,0.5]];portConstraint=eastwest;rounded=0;shadow=0;html=0;resizeHeight=0;" parent="olZNuqd292mdIsfCVhg7-122" vertex="1">
                    <mxGeometry y="54" width="220" height="20" as="geometry"/>
                </mxCell>
                <mxCell id="olZNuqd292mdIsfCVhg7-126" value="" style="line;html=1;strokeWidth=1;align=left;verticalAlign=middle;spacingTop=-1;spacingLeft=3;spacingRight=3;rotatable=0;labelPosition=right;points=[];portConstraint=eastwest;" parent="olZNuqd292mdIsfCVhg7-122" vertex="1">
                    <mxGeometry y="74" width="220" height="8" as="geometry"/>
                </mxCell>
                <mxCell id="olZNuqd292mdIsfCVhg7-66" value="MovableObject" style="swimlane;fontStyle=3;align=center;verticalAlign=top;childLayout=stackLayout;horizontal=1;startSize=26;horizontalStack=0;resizeParent=1;resizeLast=0;collapsible=1;marginBottom=0;rounded=0;shadow=0;strokeWidth=1;" parent="WIyWlLk6GJQsqaUBKTNV-1" vertex="1">
                    <mxGeometry x="40" y="1370" width="270" height="282" as="geometry">
                        <mxRectangle x="110" y="780" width="160" height="26" as="alternateBounds"/>
                    </mxGeometry>
                </mxCell>
                <mxCell id="olZNuqd292mdIsfCVhg7-88" value="-velocity_x: float" style="text;align=left;verticalAlign=middle;spacingLeft=4;spacingRight=4;overflow=hidden;rotatable=0;points=[[0,0.5],[1,0.5]];portConstraint=eastwest;imageHeight=18;" parent="olZNuqd292mdIsfCVhg7-66" vertex="1">
                    <mxGeometry y="26" width="270" height="20" as="geometry"/>
                </mxCell>
                <mxCell id="olZNuqd292mdIsfCVhg7-89" value="-velocity_y: float" style="text;align=left;verticalAlign=middle;spacingLeft=4;spacingRight=4;overflow=hidden;rotatable=0;points=[[0,0.5],[1,0.5]];portConstraint=eastwest;imageHeight=18;" parent="olZNuqd292mdIsfCVhg7-66" vertex="1">
                    <mxGeometry y="46" width="270" height="20" as="geometry"/>
                </mxCell>
                <mxCell id="olZNuqd292mdIsfCVhg7-67" value="" style="line;html=1;strokeWidth=1;align=left;verticalAlign=middle;spacingTop=-1;spacingLeft=3;spacingRight=3;rotatable=0;labelPosition=right;points=[];portConstraint=eastwest;" parent="olZNuqd292mdIsfCVhg7-66" vertex="1">
                    <mxGeometry y="66" width="270" height="8" as="geometry"/>
                </mxCell>
                <mxCell id="olZNuqd292mdIsfCVhg7-68" value="+MovableObject(): MovableObject" style="text;align=left;verticalAlign=middle;spacingLeft=4;spacingRight=4;overflow=hidden;rotatable=0;points=[[0,0.5],[1,0.5]];portConstraint=eastwest;rounded=0;shadow=0;html=0;resizeHeight=0;" parent="olZNuqd292mdIsfCVhg7-66" vertex="1">
                    <mxGeometry y="74" width="270" height="20" as="geometry"/>
                </mxCell>
                <mxCell id="olZNuqd292mdIsfCVhg7-69" value="+MovableObject(x: float, y: float): MovableObject" style="text;align=left;verticalAlign=middle;spacingLeft=4;spacingRight=4;overflow=hidden;rotatable=0;points=[[0,0.5],[1,0.5]];portConstraint=eastwest;rounded=0;shadow=0;html=0;resizeHeight=0;" parent="olZNuqd292mdIsfCVhg7-66" vertex="1">
                    <mxGeometry y="94" width="270" height="20" as="geometry"/>
                </mxCell>
                <mxCell id="olZNuqd292mdIsfCVhg7-70" value="" style="line;html=1;strokeWidth=1;align=left;verticalAlign=middle;spacingTop=-1;spacingLeft=3;spacingRight=3;rotatable=0;labelPosition=right;points=[];portConstraint=eastwest;" parent="olZNuqd292mdIsfCVhg7-66" vertex="1">
                    <mxGeometry y="114" width="270" height="8" as="geometry"/>
                </mxCell>
                <mxCell id="olZNuqd292mdIsfCVhg7-95" value="+GetVelocityX(): float" style="text;align=left;verticalAlign=middle;spacingLeft=4;spacingRight=4;overflow=hidden;rotatable=0;points=[[0,0.5],[1,0.5]];portConstraint=eastwest;rounded=0;shadow=0;html=0;resizeHeight=0;" parent="olZNuqd292mdIsfCVhg7-66" vertex="1">
                    <mxGeometry y="122" width="270" height="20" as="geometry"/>
                </mxCell>
                <mxCell id="olZNuqd292mdIsfCVhg7-96" value="+GetVelocityY(): float" style="text;align=left;verticalAlign=middle;spacingLeft=4;spacingRight=4;overflow=hidden;rotatable=0;points=[[0,0.5],[1,0.5]];portConstraint=eastwest;rounded=0;shadow=0;html=0;resizeHeight=0;" parent="olZNuqd292mdIsfCVhg7-66" vertex="1">
                    <mxGeometry y="142" width="270" height="20" as="geometry"/>
                </mxCell>
                <mxCell id="olZNuqd292mdIsfCVhg7-94" value="+GetSpeed(): float" style="text;align=left;verticalAlign=middle;spacingLeft=4;spacingRight=4;overflow=hidden;rotatable=0;points=[[0,0.5],[1,0.5]];portConstraint=eastwest;rounded=0;shadow=0;html=0;resizeHeight=0;" parent="olZNuqd292mdIsfCVhg7-66" vertex="1">
                    <mxGeometry y="162" width="270" height="20" as="geometry"/>
                </mxCell>
                <mxCell id="olZNuqd292mdIsfCVhg7-93" value="+SetVelocityX(): void" style="text;align=left;verticalAlign=middle;spacingLeft=4;spacingRight=4;overflow=hidden;rotatable=0;points=[[0,0.5],[1,0.5]];portConstraint=eastwest;rounded=0;shadow=0;html=0;resizeHeight=0;" parent="olZNuqd292mdIsfCVhg7-66" vertex="1">
                    <mxGeometry y="182" width="270" height="20" as="geometry"/>
                </mxCell>
                <mxCell id="olZNuqd292mdIsfCVhg7-98" value="+SetVelocityY(): void" style="text;align=left;verticalAlign=middle;spacingLeft=4;spacingRight=4;overflow=hidden;rotatable=0;points=[[0,0.5],[1,0.5]];portConstraint=eastwest;rounded=0;shadow=0;html=0;resizeHeight=0;" parent="olZNuqd292mdIsfCVhg7-66" vertex="1">
                    <mxGeometry y="202" width="270" height="20" as="geometry"/>
                </mxCell>
                <mxCell id="30" value="+SetDirection(direction: int): void" style="text;align=left;verticalAlign=middle;spacingLeft=4;spacingRight=4;overflow=hidden;rotatable=0;points=[[0,0.5],[1,0.5]];portConstraint=eastwest;rounded=0;shadow=0;html=0;resizeHeight=0;" parent="olZNuqd292mdIsfCVhg7-66" vertex="1">
                    <mxGeometry y="222" width="270" height="20" as="geometry"/>
                </mxCell>
                <mxCell id="olZNuqd292mdIsfCVhg7-97" value="+SetSpeedByFactor(factor: float): void" style="text;align=left;verticalAlign=middle;spacingLeft=4;spacingRight=4;overflow=hidden;rotatable=0;points=[[0,0.5],[1,0.5]];portConstraint=eastwest;rounded=0;shadow=0;html=0;resizeHeight=0;" parent="olZNuqd292mdIsfCVhg7-66" vertex="1">
                    <mxGeometry y="242" width="270" height="20" as="geometry"/>
                </mxCell>
                <mxCell id="olZNuqd292mdIsfCVhg7-99" value="+Stop(): void" style="text;align=left;verticalAlign=middle;spacingLeft=4;spacingRight=4;overflow=hidden;rotatable=0;points=[[0,0.5],[1,0.5]];portConstraint=eastwest;rounded=0;shadow=0;html=0;resizeHeight=0;" parent="olZNuqd292mdIsfCVhg7-66" vertex="1">
                    <mxGeometry y="262" width="270" height="20" as="geometry"/>
                </mxCell>
                <mxCell id="olZNuqd292mdIsfCVhg7-50" value="Deck" style="swimlane;fontStyle=3;align=center;verticalAlign=top;childLayout=stackLayout;horizontal=1;startSize=26;horizontalStack=0;resizeParent=1;resizeLast=0;collapsible=1;marginBottom=0;rounded=0;shadow=0;strokeWidth=1;" parent="WIyWlLk6GJQsqaUBKTNV-1" vertex="1">
                    <mxGeometry x="328" y="1510" width="212" height="110" as="geometry">
                        <mxRectangle x="110" y="780" width="160" height="26" as="alternateBounds"/>
                    </mxGeometry>
                </mxCell>
                <mxCell id="olZNuqd292mdIsfCVhg7-51" value="" style="line;html=1;strokeWidth=1;align=left;verticalAlign=middle;spacingTop=-1;spacingLeft=3;spacingRight=3;rotatable=0;labelPosition=right;points=[];portConstraint=eastwest;" parent="olZNuqd292mdIsfCVhg7-50" vertex="1">
                    <mxGeometry y="26" width="212" height="8" as="geometry"/>
                </mxCell>
                <mxCell id="olZNuqd292mdIsfCVhg7-52" value="+Deck(): Deck" style="text;align=left;verticalAlign=middle;spacingLeft=4;spacingRight=4;overflow=hidden;rotatable=0;points=[[0,0.5],[1,0.5]];portConstraint=eastwest;rounded=0;shadow=0;html=0;resizeHeight=0;" parent="olZNuqd292mdIsfCVhg7-50" vertex="1">
                    <mxGeometry y="34" width="212" height="20" as="geometry"/>
                </mxCell>
                <mxCell id="olZNuqd292mdIsfCVhg7-53" value="+Deck(x: float, y: float): Deck" style="text;align=left;verticalAlign=middle;spacingLeft=4;spacingRight=4;overflow=hidden;rotatable=0;points=[[0,0.5],[1,0.5]];portConstraint=eastwest;rounded=0;shadow=0;html=0;resizeHeight=0;" parent="olZNuqd292mdIsfCVhg7-50" vertex="1">
                    <mxGeometry y="54" width="212" height="20" as="geometry"/>
                </mxCell>
                <mxCell id="olZNuqd292mdIsfCVhg7-54" value="" style="line;html=1;strokeWidth=1;align=left;verticalAlign=middle;spacingTop=-1;spacingLeft=3;spacingRight=3;rotatable=0;labelPosition=right;points=[];portConstraint=eastwest;" parent="olZNuqd292mdIsfCVhg7-50" vertex="1">
                    <mxGeometry y="74" width="212" height="8" as="geometry"/>
                </mxCell>
                <mxCell id="olZNuqd292mdIsfCVhg7-55" value="+HitBy(object: GameObject&amp;): void" style="text;align=left;verticalAlign=middle;spacingLeft=4;spacingRight=4;overflow=hidden;rotatable=0;points=[[0,0.5],[1,0.5]];portConstraint=eastwest;rounded=0;shadow=0;html=0;resizeHeight=0;fontStyle=0" parent="olZNuqd292mdIsfCVhg7-50" vertex="1">
                    <mxGeometry y="82" width="212" height="20" as="geometry"/>
                </mxCell>
                <mxCell id="olZNuqd292mdIsfCVhg7-30" value="Health" style="swimlane;fontStyle=3;align=center;verticalAlign=top;childLayout=stackLayout;horizontal=1;startSize=26;horizontalStack=0;resizeParent=1;resizeLast=0;collapsible=1;marginBottom=0;rounded=0;shadow=0;strokeWidth=1;" parent="WIyWlLk6GJQsqaUBKTNV-1" vertex="1">
                    <mxGeometry x="560" y="1510" width="200" height="110" as="geometry">
                        <mxRectangle x="110" y="780" width="160" height="26" as="alternateBounds"/>
                    </mxGeometry>
                </mxCell>
                <mxCell id="olZNuqd292mdIsfCVhg7-31" value="" style="line;html=1;strokeWidth=1;align=left;verticalAlign=middle;spacingTop=-1;spacingLeft=3;spacingRight=3;rotatable=0;labelPosition=right;points=[];portConstraint=eastwest;" parent="olZNuqd292mdIsfCVhg7-30" vertex="1">
                    <mxGeometry y="26" width="200" height="8" as="geometry"/>
                </mxCell>
                <mxCell id="olZNuqd292mdIsfCVhg7-32" value="+Health(): Health" style="text;align=left;verticalAlign=middle;spacingLeft=4;spacingRight=4;overflow=hidden;rotatable=0;points=[[0,0.5],[1,0.5]];portConstraint=eastwest;rounded=0;shadow=0;html=0;resizeHeight=0;" parent="olZNuqd292mdIsfCVhg7-30" vertex="1">
                    <mxGeometry y="34" width="200" height="20" as="geometry"/>
                </mxCell>
                <mxCell id="olZNuqd292mdIsfCVhg7-33" value="+Health(x: float, y: float): Health" style="text;align=left;verticalAlign=middle;spacingLeft=4;spacingRight=4;overflow=hidden;rotatable=0;points=[[0,0.5],[1,0.5]];portConstraint=eastwest;rounded=0;shadow=0;html=0;resizeHeight=0;" parent="olZNuqd292mdIsfCVhg7-30" vertex="1">
                    <mxGeometry y="54" width="200" height="20" as="geometry"/>
                </mxCell>
                <mxCell id="olZNuqd292mdIsfCVhg7-34" value="" style="line;html=1;strokeWidth=1;align=left;verticalAlign=middle;spacingTop=-1;spacingLeft=3;spacingRight=3;rotatable=0;labelPosition=right;points=[];portConstraint=eastwest;" parent="olZNuqd292mdIsfCVhg7-30" vertex="1">
                    <mxGeometry y="74" width="200" height="8" as="geometry"/>
                </mxCell>
                <mxCell id="olZNuqd292mdIsfCVhg7-37" value="+HitBy(object: GameObject&amp;): void" style="text;align=left;verticalAlign=middle;spacingLeft=4;spacingRight=4;overflow=hidden;rotatable=0;points=[[0,0.5],[1,0.5]];portConstraint=eastwest;rounded=0;shadow=0;html=0;resizeHeight=0;fontStyle=0" parent="olZNuqd292mdIsfCVhg7-30" vertex="1">
                    <mxGeometry y="82" width="200" height="20" as="geometry"/>
                </mxCell>
                <mxCell id="olZNuqd292mdIsfCVhg7-25" value="Obstacle" style="swimlane;fontStyle=3;align=center;verticalAlign=top;childLayout=stackLayout;horizontal=1;startSize=26;horizontalStack=0;resizeParent=1;resizeLast=0;collapsible=1;marginBottom=0;rounded=0;shadow=0;strokeWidth=1;" parent="WIyWlLk6GJQsqaUBKTNV-1" vertex="1">
                    <mxGeometry x="328" y="1370" width="212" height="82" as="geometry">
                        <mxRectangle x="110" y="780" width="160" height="26" as="alternateBounds"/>
                    </mxGeometry>
                </mxCell>
                <mxCell id="olZNuqd292mdIsfCVhg7-26" value="" style="line;html=1;strokeWidth=1;align=left;verticalAlign=middle;spacingTop=-1;spacingLeft=3;spacingRight=3;rotatable=0;labelPosition=right;points=[];portConstraint=eastwest;" parent="olZNuqd292mdIsfCVhg7-25" vertex="1">
                    <mxGeometry y="26" width="212" height="8" as="geometry"/>
                </mxCell>
                <mxCell id="olZNuqd292mdIsfCVhg7-27" value="+Obstacle(): Obstacle" style="text;align=left;verticalAlign=middle;spacingLeft=4;spacingRight=4;overflow=hidden;rotatable=0;points=[[0,0.5],[1,0.5]];portConstraint=eastwest;rounded=0;shadow=0;html=0;resizeHeight=0;" parent="olZNuqd292mdIsfCVhg7-25" vertex="1">
                    <mxGeometry y="34" width="212" height="20" as="geometry"/>
                </mxCell>
                <mxCell id="olZNuqd292mdIsfCVhg7-28" value="+Obstacle(x: float, y: float): Obstacle" style="text;align=left;verticalAlign=middle;spacingLeft=4;spacingRight=4;overflow=hidden;rotatable=0;points=[[0,0.5],[1,0.5]];portConstraint=eastwest;rounded=0;shadow=0;html=0;resizeHeight=0;" parent="olZNuqd292mdIsfCVhg7-25" vertex="1">
                    <mxGeometry y="54" width="212" height="20" as="geometry"/>
                </mxCell>
                <mxCell id="olZNuqd292mdIsfCVhg7-29" value="" style="line;html=1;strokeWidth=1;align=left;verticalAlign=middle;spacingTop=-1;spacingLeft=3;spacingRight=3;rotatable=0;labelPosition=right;points=[];portConstraint=eastwest;" parent="olZNuqd292mdIsfCVhg7-25" vertex="1">
                    <mxGeometry y="74" width="212" height="8" as="geometry"/>
                </mxCell>
                <mxCell id="olZNuqd292mdIsfCVhg7-4" value="Item" style="swimlane;fontStyle=3;align=center;verticalAlign=top;childLayout=stackLayout;horizontal=1;startSize=26;horizontalStack=0;resizeParent=1;resizeLast=0;collapsible=1;marginBottom=0;rounded=0;shadow=0;strokeWidth=1;" parent="WIyWlLk6GJQsqaUBKTNV-1" vertex="1">
                    <mxGeometry x="560" y="1370" width="200" height="82" as="geometry">
                        <mxRectangle x="110" y="780" width="160" height="26" as="alternateBounds"/>
                    </mxGeometry>
                </mxCell>
                <mxCell id="olZNuqd292mdIsfCVhg7-6" value="" style="line;html=1;strokeWidth=1;align=left;verticalAlign=middle;spacingTop=-1;spacingLeft=3;spacingRight=3;rotatable=0;labelPosition=right;points=[];portConstraint=eastwest;" parent="olZNuqd292mdIsfCVhg7-4" vertex="1">
                    <mxGeometry y="26" width="200" height="8" as="geometry"/>
                </mxCell>
                <mxCell id="olZNuqd292mdIsfCVhg7-7" value="+Item(): Item" style="text;align=left;verticalAlign=middle;spacingLeft=4;spacingRight=4;overflow=hidden;rotatable=0;points=[[0,0.5],[1,0.5]];portConstraint=eastwest;rounded=0;shadow=0;html=0;resizeHeight=0;" parent="olZNuqd292mdIsfCVhg7-4" vertex="1">
                    <mxGeometry y="34" width="200" height="20" as="geometry"/>
                </mxCell>
                <mxCell id="olZNuqd292mdIsfCVhg7-13" value="+Item(x: float, y: float): Item" style="text;align=left;verticalAlign=middle;spacingLeft=4;spacingRight=4;overflow=hidden;rotatable=0;points=[[0,0.5],[1,0.5]];portConstraint=eastwest;rounded=0;shadow=0;html=0;resizeHeight=0;" parent="olZNuqd292mdIsfCVhg7-4" vertex="1">
                    <mxGeometry y="54" width="200" height="20" as="geometry"/>
                </mxCell>
                <mxCell id="olZNuqd292mdIsfCVhg7-8" value="" style="line;html=1;strokeWidth=1;align=left;verticalAlign=middle;spacingTop=-1;spacingLeft=3;spacingRight=3;rotatable=0;labelPosition=right;points=[];portConstraint=eastwest;" parent="olZNuqd292mdIsfCVhg7-4" vertex="1">
                    <mxGeometry y="74" width="200" height="8" as="geometry"/>
                </mxCell>
                <mxCell id="olZNuqd292mdIsfCVhg7-78" value="Kraken" style="swimlane;fontStyle=3;align=center;verticalAlign=top;childLayout=stackLayout;horizontal=1;startSize=26;horizontalStack=0;resizeParent=1;resizeLast=0;collapsible=1;marginBottom=0;rounded=0;shadow=0;strokeWidth=1;" parent="WIyWlLk6GJQsqaUBKTNV-1" vertex="1">
                    <mxGeometry x="40" y="1960" width="270" height="130" as="geometry">
                        <mxRectangle x="110" y="780" width="160" height="26" as="alternateBounds"/>
                    </mxGeometry>
                </mxCell>
                <mxCell id="olZNuqd292mdIsfCVhg7-79" value="" style="line;html=1;strokeWidth=1;align=left;verticalAlign=middle;spacingTop=-1;spacingLeft=3;spacingRight=3;rotatable=0;labelPosition=right;points=[];portConstraint=eastwest;" parent="olZNuqd292mdIsfCVhg7-78" vertex="1">
                    <mxGeometry y="26" width="270" height="8" as="geometry"/>
                </mxCell>
                <mxCell id="olZNuqd292mdIsfCVhg7-80" value="+Kraken(): Kraken" style="text;align=left;verticalAlign=middle;spacingLeft=4;spacingRight=4;overflow=hidden;rotatable=0;points=[[0,0.5],[1,0.5]];portConstraint=eastwest;rounded=0;shadow=0;html=0;resizeHeight=0;" parent="olZNuqd292mdIsfCVhg7-78" vertex="1">
                    <mxGeometry y="34" width="270" height="20" as="geometry"/>
                </mxCell>
                <mxCell id="olZNuqd292mdIsfCVhg7-81" value="+Kraken(x: float, y: float): Kraken" style="text;align=left;verticalAlign=middle;spacingLeft=4;spacingRight=4;overflow=hidden;rotatable=0;points=[[0,0.5],[1,0.5]];portConstraint=eastwest;rounded=0;shadow=0;html=0;resizeHeight=0;" parent="olZNuqd292mdIsfCVhg7-78" vertex="1">
                    <mxGeometry y="54" width="270" height="20" as="geometry"/>
                </mxCell>
                <mxCell id="olZNuqd292mdIsfCVhg7-82" value="" style="line;html=1;strokeWidth=1;align=left;verticalAlign=middle;spacingTop=-1;spacingLeft=3;spacingRight=3;rotatable=0;labelPosition=right;points=[];portConstraint=eastwest;" parent="olZNuqd292mdIsfCVhg7-78" vertex="1">
                    <mxGeometry y="74" width="270" height="8" as="geometry"/>
                </mxCell>
                <mxCell id="olZNuqd292mdIsfCVhg7-84" value="+HitBy(object: GameObject&amp;): void" style="text;align=left;verticalAlign=middle;spacingLeft=4;spacingRight=4;overflow=hidden;rotatable=0;points=[[0,0.5],[1,0.5]];portConstraint=eastwest;rounded=0;shadow=0;html=0;resizeHeight=0;fontStyle=0" parent="olZNuqd292mdIsfCVhg7-78" vertex="1">
                    <mxGeometry y="82" width="270" height="20" as="geometry"/>
                </mxCell>
                <mxCell id="28" value="+Move(player: Player&amp;): void" style="text;align=left;verticalAlign=middle;spacingLeft=4;spacingRight=4;overflow=hidden;rotatable=0;points=[[0,0.5],[1,0.5]];portConstraint=eastwest;rounded=0;shadow=0;html=0;resizeHeight=0;" parent="olZNuqd292mdIsfCVhg7-78" vertex="1">
                    <mxGeometry y="102" width="270" height="20" as="geometry"/>
                </mxCell>
                <mxCell id="olZNuqd292mdIsfCVhg7-110" value="Surfer" style="swimlane;fontStyle=3;align=center;verticalAlign=top;childLayout=stackLayout;horizontal=1;startSize=26;horizontalStack=0;resizeParent=1;resizeLast=0;collapsible=1;marginBottom=0;rounded=0;shadow=0;strokeWidth=1;" parent="WIyWlLk6GJQsqaUBKTNV-1" vertex="1">
                    <mxGeometry x="40" y="2110" width="270" height="130" as="geometry">
                        <mxRectangle x="110" y="780" width="160" height="26" as="alternateBounds"/>
                    </mxGeometry>
                </mxCell>
                <mxCell id="olZNuqd292mdIsfCVhg7-111" value="" style="line;html=1;strokeWidth=1;align=left;verticalAlign=middle;spacingTop=-1;spacingLeft=3;spacingRight=3;rotatable=0;labelPosition=right;points=[];portConstraint=eastwest;" parent="olZNuqd292mdIsfCVhg7-110" vertex="1">
                    <mxGeometry y="26" width="270" height="8" as="geometry"/>
                </mxCell>
                <mxCell id="olZNuqd292mdIsfCVhg7-112" value="+Surfer(): Surfer" style="text;align=left;verticalAlign=middle;spacingLeft=4;spacingRight=4;overflow=hidden;rotatable=0;points=[[0,0.5],[1,0.5]];portConstraint=eastwest;rounded=0;shadow=0;html=0;resizeHeight=0;" parent="olZNuqd292mdIsfCVhg7-110" vertex="1">
                    <mxGeometry y="34" width="270" height="20" as="geometry"/>
                </mxCell>
                <mxCell id="olZNuqd292mdIsfCVhg7-113" value="+Surfer(x: float, y: float): Surfer" style="text;align=left;verticalAlign=middle;spacingLeft=4;spacingRight=4;overflow=hidden;rotatable=0;points=[[0,0.5],[1,0.5]];portConstraint=eastwest;rounded=0;shadow=0;html=0;resizeHeight=0;" parent="olZNuqd292mdIsfCVhg7-110" vertex="1">
                    <mxGeometry y="54" width="270" height="20" as="geometry"/>
                </mxCell>
                <mxCell id="olZNuqd292mdIsfCVhg7-114" value="" style="line;html=1;strokeWidth=1;align=left;verticalAlign=middle;spacingTop=-1;spacingLeft=3;spacingRight=3;rotatable=0;labelPosition=right;points=[];portConstraint=eastwest;" parent="olZNuqd292mdIsfCVhg7-110" vertex="1">
                    <mxGeometry y="74" width="270" height="8" as="geometry"/>
                </mxCell>
                <mxCell id="olZNuqd292mdIsfCVhg7-115" value="+HitBy(object: GameObject&amp;): void" style="text;align=left;verticalAlign=middle;spacingLeft=4;spacingRight=4;overflow=hidden;rotatable=0;points=[[0,0.5],[1,0.5]];portConstraint=eastwest;rounded=0;shadow=0;html=0;resizeHeight=0;fontStyle=0" parent="olZNuqd292mdIsfCVhg7-110" vertex="1">
                    <mxGeometry y="82" width="270" height="20" as="geometry"/>
                </mxCell>
                <mxCell id="29" value="+Move(): void" style="text;align=left;verticalAlign=middle;spacingLeft=4;spacingRight=4;overflow=hidden;rotatable=0;points=[[0,0.5],[1,0.5]];portConstraint=eastwest;rounded=0;shadow=0;html=0;resizeHeight=0;" parent="olZNuqd292mdIsfCVhg7-110" vertex="1">
                    <mxGeometry y="102" width="270" height="20" as="geometry"/>
                </mxCell>
                <mxCell id="22" value="" style="edgeStyle=orthogonalEdgeStyle;rounded=0;orthogonalLoop=1;jettySize=auto;html=1;entryX=0.5;entryY=0;entryDx=0;entryDy=0;endArrow=none;endFill=0;startArrow=diamondThin;startFill=1;startSize=12;exitX=0.5;exitY=1;exitDx=0;exitDy=0;" parent="WIyWlLk6GJQsqaUBKTNV-1" source="RiHCerz2gjzvpgdkcuPO-10" target="13" edge="1">
                    <mxGeometry x="-0.1822" y="-12" relative="1" as="geometry">
                        <mxPoint x="701" y="400" as="targetPoint"/>
                        <mxPoint as="offset"/>
                        <mxPoint x="420" y="340" as="sourcePoint"/>
                        <Array as="points">
                            <mxPoint x="410" y="370"/>
                            <mxPoint x="954" y="370"/>
                            <mxPoint x="954" y="400"/>
                        </Array>
                    </mxGeometry>
                </mxCell>
                <mxCell id="23" value="" style="edgeStyle=orthogonalEdgeStyle;rounded=0;orthogonalLoop=1;jettySize=auto;html=1;entryX=1;entryY=0.5;entryDx=0;entryDy=0;endArrow=none;endFill=0;startArrow=open;startFill=0;startSize=10;exitX=1;exitY=0.5;exitDx=0;exitDy=0;" parent="WIyWlLk6GJQsqaUBKTNV-1" source="18" target="4" edge="1">
                    <mxGeometry x="-0.1822" y="-12" relative="1" as="geometry">
                        <mxPoint x="964.5" y="400" as="targetPoint"/>
                        <mxPoint as="offset"/>
                        <mxPoint x="420" y="340" as="sourcePoint"/>
                        <Array as="points">
                            <mxPoint x="1160" y="522"/>
                            <mxPoint x="1160" y="76"/>
                        </Array>
                    </mxGeometry>
                </mxCell>
                <mxCell id="25" value="" style="edgeStyle=orthogonalEdgeStyle;rounded=0;orthogonalLoop=1;jettySize=auto;html=1;entryX=1;entryY=0.5;entryDx=0;entryDy=0;endArrow=none;endFill=0;startArrow=open;startFill=0;startSize=10;exitX=1;exitY=0.5;exitDx=0;exitDy=0;" parent="WIyWlLk6GJQsqaUBKTNV-1" source="RiHCerz2gjzvpgdkcuPO-67" target="4" edge="1">
                    <mxGeometry x="-0.1822" y="-12" relative="1" as="geometry">
                        <mxPoint x="319.9999999999998" y="436" as="targetPoint"/>
                        <mxPoint as="offset"/>
                        <mxPoint x="1140" y="532" as="sourcePoint"/>
                        <Array as="points">
                            <mxPoint x="610" y="522"/>
                            <mxPoint x="610" y="76"/>
                        </Array>
                    </mxGeometry>
                </mxCell>
                <mxCell id="26" value="used by" style="edgeLabel;html=1;align=center;verticalAlign=middle;resizable=0;points=[];" parent="25" vertex="1" connectable="0">
                    <mxGeometry x="-0.8108" y="2" relative="1" as="geometry">
                        <mxPoint x="-58" y="-421.52" as="offset"/>
                    </mxGeometry>
                </mxCell>
            </root>
        </mxGraphModel>
    </diagram>
</mxfile>